<?xml version="1.0" encoding="UTF-8" standalone="no"?>
<!-- Created with Inkscape (http://www.inkscape.org/) -->

<svg
   xmlns:dc="http://purl.org/dc/elements/1.1/"
   xmlns:cc="http://creativecommons.org/ns#"
   xmlns:rdf="http://www.w3.org/1999/02/22-rdf-syntax-ns#"
   xmlns:svg="http://www.w3.org/2000/svg"
   xmlns="http://www.w3.org/2000/svg"
   xmlns:sodipodi="http://sodipodi.sourceforge.net/DTD/sodipodi-0.dtd"
   xmlns:inkscape="http://www.inkscape.org/namespaces/inkscape"
   width="60mm"
   height="60mm"
   viewBox="0 0 60 60"
   version="1.1"
   id="svg8"
   inkscape:version="0.92.3 (2405546, 2018-03-11)"
   sodipodi:docname="drawing.svg">
  <defs
     id="defs2" />
  <sodipodi:namedview
     id="base"
     pagecolor="#ffffff"
     bordercolor="#666666"
     borderopacity="1.0"
     inkscape:pageopacity="0.0"
     inkscape:pageshadow="2"
     inkscape:zoom="2.8"
     inkscape:cx="124.79352"
     inkscape:cy="111.57144"
     inkscape:document-units="mm"
     inkscape:current-layer="layer1"
     showgrid="false"
     inkscape:window-width="1920"
     inkscape:window-height="1016"
     inkscape:window-x="1280"
     inkscape:window-y="267"
     inkscape:window-maximized="1"
     fit-margin-top="0"
     fit-margin-left="0"
     fit-margin-right="0"
     fit-margin-bottom="0" />
  <metadata
     id="metadata5">
    <rdf:RDF>
      <cc:Work
         rdf:about="">
        <dc:format>image/svg+xml</dc:format>
        <dc:type
           rdf:resource="http://purl.org/dc/dcmitype/StillImage" />
        <dc:title />
      </cc:Work>
    </rdf:RDF>
  </metadata>
  <g
     inkscape:label="Layer 1"
     inkscape:groupmode="layer"
     id="layer1"
     transform="translate(-32.604313,-136.0618)">
    <rect
       style="fill:#ffffff;fill-opacity:1;stroke-width:0.2771706"
       id="rect4435"
       width="60"
       height="60"
       x="32.604313"
       y="136.0618"
       rx="6" />
    <path
       id="path3806"
       style="fill:#eac12b;fill-opacity:1;stroke-width:0.08466667"
       d="m 61.42233,142.01126 -5.29e-4,5.3e-4 -5.29e-4,5.3e-4 -5.29e-4,5.3e-4 -5.3e-4,5.3e-4 c -2.253115,-0.0165 -4.506092,0.67975 -6.371703,2.07739 -1.320872,0.98955 -2.745309,2.73575 -3.34295,4.09743 -0.92796,2.11427 -1.162807,4.61302 -0.640786,6.82232 0.229348,0.97067 0.779547,2.3537 1.120343,2.81636 0.111467,0.15119 0.231045,0.27492 0.265618,0.27492 0.03463,0 0.211431,-0.19993 0.39274,-0.44441 0.425577,-0.57382 1.466286,-1.60727 2.134237,-2.11926 0.87761,-0.67269 3.171175,-1.73427 3.918625,-1.82986 0.0037,-0.002 0.0075,-0.004 0.01138,-0.005 0.01209,-0.004 0.02429,-0.006 0.03669,-0.008 -7.94e-4,3e-5 -0.0013,-4e-5 -0.0021,0 -5.29e-4,4e-5 0.0011,-2.1e-4 0.0016,-5.3e-4 0.0038,-0.001 0.0076,-0.001 0.01138,-0.002 0.0042,-8e-4 0.0082,-0.002 0.01241,-0.003 0.0033,-2.4e-4 0.0066,-1.6e-4 0.0098,-5.3e-4 l 5.29e-4,-5.3e-4 c 7.93e-4,-2.6e-4 0.0016,-7.9e-4 0.0026,-0.001 0.0079,-0.003 0.01384,-0.003 0.02066,-0.005 0.009,-0.005 0.01805,-0.01 0.02739,-0.0134 0.0024,-8e-4 0.01802,-0.005 0.01757,-0.005 l 5.3e-4,-5.3e-4 c 0.003,-0.002 0.0063,-0.003 0.0093,-0.005 0.0043,-0.002 0.0085,-0.005 0.01291,-0.007 0.02082,-0.009 0.06483,-0.0258 0.0186,-0.008 2.64e-4,-1.2e-4 7.94e-4,-2.1e-4 0.0011,-5.3e-4 0.0021,-0.001 0.0177,-0.009 0.02066,-0.01 0.0046,-5.3e-4 0.01217,-0.002 0.05013,-0.0186 0.0021,-0.001 -0.0088,0.002 -0.01913,0.005 0.0042,-0.001 0.01659,-0.005 0.01241,-0.004 0.0038,-0.001 0.0076,-0.002 0.01138,-0.004 0.0021,-10e-4 0.0046,-10e-4 0.0067,-0.002 0.0021,-8e-4 0.004,-0.002 0.0062,-0.003 0.0019,-5.3e-4 0.0038,-5.3e-4 0.0057,-5.3e-4 0.0167,-0.006 0.03341,-0.0123 0.05116,-0.015 0.0024,-8e-4 0.0047,-0.003 0.0072,-0.003 0.004,-7.9e-4 0.0083,-7.9e-4 0.01241,-0.002 0.0083,-0.002 0.01744,-0.005 0.02119,-0.006 0.01556,-0.003 0.02956,-0.002 0.04393,-0.001 7.94e-4,-2.6e-4 0.0016,-0.002 0.0026,-0.003 0.01191,-0.004 0.02932,-0.012 0.02326,-0.006 -0.006,0.005 -0.02551,0.009 -0.02273,0.007 5.29e-4,-1.4e-4 0.0013,1.4e-4 0.0021,0 0.0074,-0.002 0.01474,-0.003 0.02222,-0.005 0.0038,-0.002 0.0076,-0.003 0.01138,-0.004 0.0016,-2.7e-4 0.0031,-0.001 0.0047,-0.002 0.003,-8e-4 0.0053,-0.002 0.0083,-0.003 0.0019,-2.6e-4 0.0034,-4e-5 0.0062,-5.3e-4 0.0016,-2.6e-4 0.0016,-9e-5 0.0031,-5.3e-4 v 5.3e-4 c -0.0032,0.001 -0.01421,0.004 -0.02119,0.007 0.0043,-7.9e-4 0.0081,-0.002 0.01241,-0.003 0.005,-0.001 0.0099,-0.003 0.01498,-0.004 0.0013,-1.8e-4 0.003,6e-5 0.0041,0 0.005,-0.001 0.01005,-0.002 0.01498,-0.003 0.008,-0.002 -0.01132,1e-5 -0.02479,0.002 0.0011,-2.6e-4 0.0016,-7.9e-4 0.0031,-10e-4 0.0052,-0.002 0.02064,-0.009 0.03721,-0.0119 -0.0054,7.9e-4 -0.01061,10e-4 -0.0155,0.003 -7.94e-4,1.8e-4 -0.0013,2.1e-4 -0.0021,5.3e-4 -0.0026,5.3e-4 -0.0052,8e-4 -0.0078,0.002 0.0031,-0.001 0.0062,-0.002 0.0093,-0.004 -2.64e-4,9e-5 0.0013,-5.3e-4 0.0011,-5.3e-4 0.01156,-0.004 0.03142,-0.013 0.03514,-0.0108 0.0038,-0.002 0.0074,-0.005 0.01138,-0.007 0.01296,-0.006 0.02715,-0.009 0.04082,-0.0139 0.0072,-0.002 0.01434,-0.005 0.0217,-0.005 0.0011,7e-5 -0.05785,0.0161 0.0062,-0.002 0.0021,-5.3e-4 0.0037,-8e-4 0.0057,-0.001 0.0031,-8e-4 0.0044,-5.3e-4 0.0093,-0.002 0.004,-0.003 0.0079,-0.006 0.01188,-0.009 -0.0063,0.003 -0.0011,7.9e-4 -0.01138,0.005 -0.0045,0.002 0.0085,-0.005 0.01291,-0.007 7.94e-4,-5.2e-4 0.0024,-5.2e-4 0.0031,-0.001 0.0013,-0.001 0.0028,-0.002 0.0041,-0.003 0.0061,-0.002 0.01908,-0.007 0.02326,-0.008 -6.6e-5,1e-5 0.0016,-5.3e-4 0.0016,-5.3e-4 0.01328,-0.006 0.02593,-0.013 0.04031,-0.016 0.0081,-0.002 0.03074,-0.008 0.04289,-0.009 0.0095,-0.001 0.01889,-0.002 0.02842,-0.003 0.0051,-0.005 0.01402,-0.006 0.02687,-0.005 0.0016,-2.6e-4 0.0028,-5.3e-4 0.0036,-5.3e-4 2.31e-4,-2e-5 0.0013,-6e-5 0.0011,0 5.29e-4,-6e-5 0.0016,4e-5 0.0021,0 0.0069,-5.3e-4 0.0155,-0.004 0.02326,-0.006 0.02764,-0.008 0.05531,-0.0133 0.0863,-0.0176 0.05118,-0.007 0.0965,-0.007 0.135909,-0.002 0.0385,0.005 0.07015,0.0166 0.09715,0.031 0.0013,-1.5e-4 0.0038,-0.001 0.0052,-0.001 0.01791,-5.3e-4 0.03549,0.002 0.05788,0.004 0.12129,0.009 0.123835,0.0476 0.08526,0.0961 0.0029,2.7e-4 0.0059,1.1e-4 0.0088,5.3e-4 0.02513,0.002 0.0442,0.008 0.06356,0.0119 0.0026,-2.6e-4 0.0052,-7.9e-4 0.0078,-10e-4 0.03324,-1.2e-4 0.05712,1.6e-4 0.08785,0 0.01968,-1.4e-4 0.03921,-4e-5 0.05891,0 0.0051,-0.002 0.03037,-0.01 0.01344,-0.005 0.0576,-0.015 0.116464,-0.0342 0.176731,-0.0372 0.01027,-0.002 0.02019,-0.005 0.03049,-0.007 0.04452,-0.007 0.09015,-0.004 0.134874,-0.002 0.01368,1.3e-4 0.02766,-1.6e-4 0.04134,-5.3e-4 0.01701,1.7e-4 0.03364,4e-5 0.05064,0 0.03394,-3e-5 0.06787,-1e-5 0.101804,0 0.0041,0 0.0083,1e-5 0.01241,0 0.03046,-0.008 0.05861,-0.0157 0.121441,-0.0207 0.02056,-0.002 0.04117,0.002 0.0615,0.006 -0.0021,-2.3e-4 -0.0044,-7.9e-4 -0.0067,-0.001 0.01921,-0.001 0.03866,-5.3e-4 0.05788,-5.3e-4 0.03363,-0.006 0.05795,-0.0105 0.102835,-0.0108 7.94e-4,-1e-5 0.0019,0 0.0026,0 0.02289,-0.003 0.04562,-0.007 0.06873,-0.008 0.03824,-5.3e-4 0.07668,10e-4 0.114721,0.002 0.03306,-2e-4 0.06616,-5.3e-4 0.09922,-5.3e-4 0.049,1.7e-4 0.09776,1e-5 0.146761,0 0.0357,-1e-5 0.07127,0 0.106971,0 0.03056,-5.3e-4 0.05764,0.004 0.08578,0.0109 0.08899,0.008 0.05845,0.005 0.08888,0.009 0.0049,5.3e-4 0.0062,1.6e-4 0.0093,5.3e-4 5.29e-4,1.6e-4 0.0021,5.3e-4 0.0016,5.3e-4 -0.0064,-0.001 -0.0071,-5.3e-4 -0.01085,-0.001 -0.0159,-0.002 -0.03966,-0.004 -0.02997,-0.003 0.206539,0.0481 0.09687,0.006 0.190688,0.0439 0.0505,-0.0129 -0.106127,-0.0196 -0.07907,-0.0243 0.0155,-0.003 0.03135,0.003 0.04702,0.005 0.02659,0.003 0.05253,0.009 0.07855,0.0155 -0.0029,-0.001 -0.0059,-0.002 -0.0088,-0.003 -0.01416,-0.005 0.02965,0.007 0.04444,0.01 -0.01175,-0.003 -0.02387,-0.004 -0.03565,-0.007 0.01614,0.006 0.03274,0.0112 0.04909,0.0165 0.0069,8e-4 0.01394,10e-4 0.02066,0.003 0.0096,0.002 0.01839,0.007 0.0279,0.009 -0.0078,-0.0162 -0.0067,-0.0276 -0.0078,-0.0403 -0.0543,-0.0485 -0.06432,-0.0881 0.06253,-0.0997 0.06217,-0.006 0.07999,-0.0103 0.09147,-0.0114 0.0087,-7.9e-4 0.02228,0.004 0.03979,0.008 0.0019,2.6e-4 0.0038,5.3e-4 0.0057,0.001 0.0016,5.2e-4 0.0013,4e-5 0.0031,5.2e-4 7.94e-4,1.6e-4 0.0013,2.6e-4 0.0021,5.3e-4 0.0019,1.5e-4 0.0034,8e-4 0.0052,0.001 0.0042,5.3e-4 0.0083,0.002 0.01241,0.002 0.0019,2.6e-4 0.0035,5.3e-4 0.0052,5.3e-4 0.0064,7.9e-4 0.01278,0.002 0.01913,0.003 -0.0046,-0.001 -0.0089,-0.002 -0.01344,-0.003 0.0024,5.3e-4 0.0028,-3e-5 0.0057,5.3e-4 0.0034,5.3e-4 0.0071,0.002 0.0098,0.003 0.01016,-10e-4 0.02032,-0.002 0.03049,-0.004 0.01061,0.002 0.02148,0.003 0.03204,0.005 0.0054,0.001 0.0113,0.001 0.01603,0.004 2.65e-4,1.8e-4 7.94e-4,2.4e-4 0.0011,5.3e-4 -0.0127,-2.7e-4 -0.03881,-0.001 0.02479,0.003 7.94e-4,1.4e-4 0.0013,2.4e-4 0.0026,5.3e-4 0.0035,2.3e-4 0.0045,-2.6e-4 0.0067,0 0.0038,5.3e-4 0.0044,0.002 0.0078,0.002 5.29e-4,6e-5 5.29e-4,5.3e-4 0.0011,5.3e-4 0.01294,0.002 0.02164,0.007 0.03049,0.009 0.0077,0.001 0.01566,5.3e-4 0.02326,0.002 0.01352,0.002 0.02572,0.009 0.03876,0.0129 0.0074,0.003 0.03109,0.0134 0.03566,0.0171 0.0049,0.004 -0.01132,-0.005 -0.01704,-0.008 0.0057,0.003 0.01132,0.007 0.01704,0.0103 0.0024,0.001 0.0045,0.002 0.0052,0.002 0.0028,7.9e-4 0.0055,0.002 0.0083,0.003 0.0024,8e-4 0.0031,10e-4 0.0067,0.003 0.0013,1e-4 0.0024,5.3e-4 0.0036,5.3e-4 0.0011,2.6e-4 0.0021,2.1e-4 0.0031,5.3e-4 0.0011,-4e-5 0.0021,0 0.0031,0 0.0031,1.5e-4 0.004,7.9e-4 0.0057,0.001 0.05817,-0.0214 0.109511,-0.0258 0.150894,-0.008 0.07569,0.033 0.48382,0.14837 0.906921,0.25632 1.263909,0.32248 2.808089,1.0552 3.806486,1.80661 0.595008,0.4478 1.723903,1.56755 2.116151,2.09909 0.180401,0.24448 0.355322,0.44442 0.389122,0.44442 0.103728,0 0.369327,-0.43047 0.743625,-1.20664 0.513038,-1.06391 0.842518,-2.46085 0.903819,-3.83078 0.170191,-3.80091 -1.589394,-7.23427 -4.784203,-9.33483 -1.722366,-1.13244 -3.710319,-1.70165 -5.698361,-1.71617 z m -2.239656,11.59567 c -0.0039,0.001 -0.008,0.002 -0.01188,0.004 -0.0084,0.003 -0.01635,0.008 -0.02429,0.0124 -2.65e-4,2.6e-4 0.0031,-0.001 0.0026,-5.3e-4 -0.004,0.002 -0.0083,0.004 -0.01241,0.007 0.01619,-0.008 0.03261,-0.0163 0.04961,-0.0222 -0.0013,1.9e-4 -0.0024,3e-5 -0.0036,0 z m -0.03617,0.016 c 5.29e-4,-5.3e-4 -0.0034,0.001 -0.0036,0.001 -2.65e-4,1.8e-4 -7.94e-4,2.1e-4 -0.0011,5.3e-4 -0.0034,-5.3e-4 -0.02212,0.005 -0.03256,0.009 -0.0054,0.002 -0.01042,0.005 -0.0155,0.008 0.01236,-0.005 0.0213,-0.006 0.03514,-0.0108 -0.004,0.002 -0.0079,0.005 -0.01188,0.007 0.0019,-0.001 0.0038,-0.002 0.0057,-0.003 0.0011,-7.9e-4 0.0021,-7.9e-4 0.0031,-0.002 0.0016,-10e-4 0.0035,-0.002 0.0052,-0.003 7.94e-4,-2.6e-4 0.0013,-2.2e-4 0.0021,-5.3e-4 -0.0024,0.001 -0.0049,0.002 -0.0072,0.004 0.0024,-0.001 0.0049,-0.002 0.0072,-0.003 7.93e-4,-5.3e-4 0.0016,-0.001 0.0026,-0.002 0.0036,-0.002 0.0072,-0.004 0.01085,-0.006 z m 0.572058,-0.16588 c -0.0073,10e-4 -0.01442,0.003 -0.0217,0.004 0.0038,-2.7e-4 0.0076,-5.3e-4 0.01138,-0.001 0.0024,-2.3e-4 -0.0068,0.001 -0.01704,0.003 -0.0021,0.003 -0.0061,0.004 -0.0041,0.01 0.01418,-0.007 0.02702,-0.0104 0.04031,-0.015 -0.0021,-2.6e-4 -0.0039,-1.3e-4 -0.0062,-5.3e-4 -0.0011,-1.4e-4 -0.0016,1.3e-4 -0.0026,0 z m -0.0217,0.004 c -0.0019,1.4e-4 -0.0034,2.1e-4 -0.0052,5.2e-4 l -5.29e-4,5.3e-4 c 0.0019,-2.6e-4 0.0038,-7.9e-4 0.0057,-0.001 z m 3.08405,0.001 c 0.0031,0.002 0.0054,0.004 0.0088,0.006 0.005,0.002 0.0098,0.002 0.01603,0.005 0.0081,0.004 -0.01656,-0.007 -0.02479,-0.0104 z m 0.05684,0.0259 c 0.0026,0.002 0.0056,0.003 0.0083,0.004 0.0013,2.7e-4 0.0028,8e-4 0.0041,0.001 -7.94e-4,-2.6e-4 -0.0027,-0.002 -0.0031,-0.002 -0.0024,-7.9e-4 -0.01045,-0.004 -0.0093,-0.004 z m 0.02066,0.008 c 7.93e-4,5.3e-4 0.0016,0.001 0.0026,0.002 7.94e-4,1.2e-4 0.0019,-1.5e-4 0.0026,0 -0.0024,-0.001 -0.0028,-5.3e-4 -0.0052,-0.002 z m -0.885733,0.004 c 0.02016,0.005 0.0402,0.01 0.06563,0.0139 0.0067,0.001 -0.01302,-0.005 -0.01963,-0.006 -0.02387,-0.006 -0.03134,-0.006 -0.04599,-0.008 z m -0.786,0.006 c 0.005,10e-4 0.01,0.002 0.01498,0.003 0.0011,-2e-4 0.0011,-1.5e-4 0.0021,-5.3e-4 -0.0056,-7.9e-4 -0.0114,-0.002 -0.01707,-0.003 z m 0.03101,0.005 c -0.0016,1.9e-4 -0.0031,1.7e-4 -0.0047,5.3e-4 0.01156,0.003 0.02299,0.005 0.03462,0.007 0.01019,10e-4 -0.01807,-0.005 -0.02997,-0.007 z m -1.690851,0.009 c -0.0057,0.002 -0.01103,0.004 -0.01654,0.006 0.01135,-0.006 -0.0122,0.0101 -0.0155,0.0124 0.0026,3e-5 0.0051,-1e-4 0.0078,0 0.0081,-0.006 0.01622,-0.012 0.02429,-0.0181 z m -0.02429,0.0181 c -7.94e-4,5.3e-4 -0.0013,0.001 -0.0021,0.002 0.0058,-7.9e-4 0.0085,-0.001 0.01241,-0.002 0.0011,-2.3e-4 0.0011,-2.1e-4 0.0021,-5.3e-4 -0.0041,2.4e-4 -0.0082,8e-4 -0.01241,5.3e-4 z m -0.0021,0.002 c -0.0039,5.3e-4 -0.0051,7.9e-4 -0.0083,0.001 -0.0021,0.002 -0.0055,0.005 -0.0062,0.005 0.0033,-0.001 0.0078,-0.002 0.01035,-0.003 0.0013,-0.001 0.0028,-0.002 0.0041,-0.003 z m -0.0083,0.001 c 0.0011,-7.9e-4 0.0019,-0.002 0.0026,-0.003 -0.0059,-6e-5 -0.01188,-7.9e-4 -0.01757,5.3e-4 -0.0076,0.002 -0.005,0.003 -0.01085,0.005 0.0058,-2.7e-4 0.01561,-0.002 0.02585,-0.003 z m -0.0279,-0.003 c 0.0054,-0.003 -0.01003,0.004 -0.01757,0.007 5.3e-4,-3e-5 0.0035,4e-5 0.0041,0 0.0044,-0.002 0.0091,-0.004 0.01344,-0.007 z m 0.02479,0.01 c 0.0035,-5.3e-4 -0.01151,0.002 -0.0083,0.002 l -5.29e-4,5.3e-4 c 0.0027,-5.3e-4 0.0045,-0.001 0.0088,-0.002 z m -0.131257,0.0269 c -0.004,7.9e-4 -0.0079,0.001 -0.01188,0.002 -0.0016,7.9e-4 -0.0031,10e-4 -0.0047,0.002 0.0013,-2.5e-4 0.0024,-7.9e-4 0.0036,-0.001 h 5.3e-4 c 0.0037,-10e-4 0.0076,-0.002 0.01138,-0.003 2.64e-4,-1.3e-4 7.93e-4,-2.1e-4 0.0011,-5.3e-4 z m 0.906404,5.3e-4 c -0.0039,2.6e-4 -0.01579,0.002 -0.01188,0.002 0.0049,-8e-4 0.01003,-0.001 0.01497,-0.002 -0.0011,8e-5 -0.0021,-5.3e-4 -0.0031,-5.3e-4 z m 0.610815,0.005 c -0.0038,0.001 -0.0024,-7e-5 -0.0062,0.002 -0.007,0.002 -0.01204,0.008 -0.0181,0.0124 0.0113,-0.007 0.01498,-0.008 0.02429,-0.0139 z m -0.579811,0.0584 c -0.0019,0.006 -2.17e-4,0.0102 -0.0036,0.0171 0.0089,-0.001 0.01765,-0.002 0.02791,-0.004 -0.0072,-0.006 -0.01638,-0.008 -0.02429,-0.0134 z m -1.385961,0.0662 c 0.0029,-0.001 -0.0078,0.003 -0.0098,0.004 0.0013,-1.6e-4 0.0024,-2.2e-4 0.0036,-5.3e-4 2.65e-4,-1.9e-4 7.94e-4,-5.3e-4 0.0011,-5.3e-4 h 5.29e-4 c 7.94e-4,-2.6e-4 0.0041,-0.002 0.0047,-0.003 z m 1.34979,0.45268 c 0.0016,0.0179 0.0011,0.0195 0.0021,0.031 -2.46e-4,-0.005 0.0016,-0.008 0.0011,-0.0129 -7.94e-4,-0.006 -0.0021,-0.012 -0.0031,-0.0181 z m -0.179835,0.23462 c 0.0011,7.9e-4 0.0019,0.002 0.0031,0.003 0.02469,0.0164 0.02761,0.0169 0.04134,0.0259 0.0075,-0.003 0.01519,-0.005 0.02273,-0.008 -0.0081,-0.007 -0.01585,-0.0124 -0.02376,-0.0186 -0.0079,1.5e-4 -0.01588,2.5e-4 -0.02376,0 -0.0109,-2.7e-4 -0.01196,-0.002 -0.01963,-0.003 z m -0.122473,0.0718 c -0.0056,-0.002 0.0109,0.003 0.01654,0.005 0.0021,2.3e-4 0.0027,1.4e-4 0.0047,5.3e-4 -0.007,-0.002 -0.01413,-0.004 -0.02119,-0.006 z m 0.363803,0.0527 c -0.0016,1.3e-4 -0.0031,1.6e-4 -0.0047,5.2e-4 v 0.001 c -0.004,0.002 -0.0084,0.003 -0.01241,0.006 -0.0053,0.003 0.0092,-0.003 0.01707,-0.007 z m -0.325562,0.27802 c -0.0011,7.9e-4 -0.0035,0.003 -0.0047,0.004 -0.0024,0.003 -0.0026,0.003 -0.0062,0.008 -0.0011,0.002 -0.0021,0.003 -0.0031,0.005 0.0045,-0.005 0.0063,-0.008 0.01394,-0.017 z"
       inkscape:connector-curvature="0" />
    <path
       id="path3802"
       style="fill:#8fa63f;fill-opacity:1;stroke-width:0.08466667"
       d="m 57.359013,156.27086 c -0.01664,0.003 -0.0334,0.005 -0.05013,0.007 0.0019,0.002 0.0037,0.004 0.0057,0.006 0.01453,-0.004 0.02871,-0.006 0.04341,-0.0109 5.3e-4,-5.3e-4 5.3e-4,-0.001 0.0011,-0.002 z m 4.037478,0.1881 c -0.323472,-0.0111 -0.644512,0.0346 -0.848527,0.14107 -0.887709,0.46333 -1.211866,1.53377 -0.759126,2.50631 0.343291,0.73745 0.84229,1.24885 1.339971,1.37304 0.447707,0.11172 0.75337,0.0199 1.049031,-0.3147 0.40087,-0.45361 0.633463,-1.13224 0.680061,-1.98696 0.04927,-0.90278 -0.07831,-1.22723 -0.596863,-1.51877 -0.21495,-0.12087 -0.541073,-0.18889 -0.864547,-0.19999 z m 2.366782,1.72754 c -0.0092,0 -0.03431,0.30367 -0.05581,0.6749 -0.0331,0.57183 -0.08031,0.74094 -0.307475,1.10639 -0.391109,0.62915 -0.444357,0.57152 0.705385,0.76223 0.617998,0.1025 1.749192,0.36495 2.222603,0.51521 0.151349,0.0481 0.275434,0.14154 0.275434,0.20774 0,0.0662 -0.01315,0.1204 -0.02894,0.1204 -0.333891,0 -2.917084,0.29036 -3.442684,0.38706 -0.826442,0.15205 -2.285648,0.6143 -2.285648,0.72399 0,0.0407 1.152443,0.0782 2.561082,0.0832 1.40865,0.005 2.904212,0.0384 3.323312,0.0749 l -5.29e-4,5.3e-4 c 0.4191,0.0365 1.219385,0.0602 1.778185,0.0543 0.930799,-0.0108 1.056828,-0.0319 1.503267,-0.25115 0.546301,-0.26827 0.709605,-0.47549 0.574125,-0.72864 -0.09966,-0.18622 -0.664157,-0.65415 -1.103807,-0.91519 -0.879991,-0.52249 -5.537354,-2.81585 -5.718514,-2.81585 z m -5.167127,0.0848 c -0.232169,0 -2.02362,0.81276 -3.053561,1.38545 -2.338129,1.3001 -3.48501,2.17053 -3.499012,2.65565 -0.0056,0.19298 0.704641,0.46711 1.602486,0.61857 0.537141,0.0906 1.370685,0.15313 2.094963,0.15813 1.110972,0.007 1.289042,-0.0142 2.328542,-0.28371 0.618988,-0.16048 1.487218,-0.41158 1.929596,-0.55811 0.910741,-0.30162 2.146559,-0.63031 2.702679,-0.71881 0.32535,-0.0518 0.352605,-0.072 0.211357,-0.15245 -0.275362,-0.15696 -2.738794,-0.16969 -4.410585,-0.0227 -1.799699,0.1581 -2.451428,0.16973 -2.528528,0.045 -0.0307,-0.0496 -0.03902,-0.10724 -0.0186,-0.12764 0.02043,-0.0204 0.716319,-0.22914 1.546159,-0.46405 0.829831,-0.23491 1.579014,-0.46457 1.665015,-0.51057 0.172349,-0.0922 0.181353,-0.0665 -0.313677,-0.8816 -0.14046,-0.23123 -0.205756,-0.46645 -0.206706,-0.74104 -7.94e-4,-0.22119 -0.02334,-0.40204 -0.05013,-0.40204 z"
       inkscape:connector-curvature="0" />
    <path
       id="path3800"
       style="fill:#465b1b;fill-opacity:1;stroke-width:0.08466667"
       d="m 50.172887,166.83197 c -1.105387,0.009 -2.964357,1.1988 -3.619934,2.42879 -0.14719,0.27614 -0.323625,0.54875 -0.392223,0.60565 -0.174289,0.14465 -0.61577,-0.0118 -1.020609,-0.36174 -0.271312,-0.23454 -0.323237,-0.33745 -0.358635,-0.7059 -0.0388,-0.40376 -0.02199,-0.45314 0.270785,-0.77721 0.519398,-0.5749 1.529821,-0.84446 2.238621,-0.59738 0.30825,0.10745 0.420034,0.0528 0.267684,-0.13074 -0.283239,-0.34129 -1.540454,-0.25758 -2.215885,0.14728 -0.66281,0.3973 -0.860086,0.7324 -0.819587,1.39061 0.02736,0.44417 0.07217,0.56922 0.282671,0.79168 0.137549,0.14536 0.459597,0.36514 0.715716,0.48834 0.396322,0.19066 0.462235,0.25549 0.444934,0.43564 -0.01119,0.11641 -0.02663,0.54156 -0.03462,0.94464 -0.01288,0.64426 0.01302,0.79017 0.217041,1.20716 0.25137,0.51379 0.599056,0.83054 1.065567,0.971 h 5.29e-4 c 0.450122,0.13552 1.248185,0.0395 1.762683,-0.21187 0.53394,-0.2609 0.893691,-0.71385 1.082622,-1.36374 0.142391,-0.48981 0.08431,-0.83331 -0.192752,-1.13947 -0.264281,-0.29202 -1.087548,-0.12351 -1.295529,0.2651 -0.132681,0.24788 -0.105601,0.59558 0.05116,0.65578 0.240411,0.0922 0.411861,-0.0949 0.411861,-0.44959 0,-0.31029 0.01564,-0.33013 0.280604,-0.35553 0.382918,-0.0368 0.52348,0.10525 0.52348,0.52865 0,0.71416 -0.755427,1.52786 -1.664496,1.79214 -0.57367,0.16676 -1.143971,0.0331 -1.416452,-0.33176 -0.241491,-0.32336 -0.296008,-1.44834 -0.10232,-2.1146 l 0.134877,-0.46509 0.699182,-0.061 c 0.93934,-0.0823 1.627815,-0.30724 2.203998,-0.71985 1.214702,-0.86982 1.725414,-2.45379 0.90124,-2.79518 -0.121439,-0.0503 -0.264285,-0.0731 -0.422199,-0.0718 z m 16.334404,0.10594 c -1.141876,0.0547 -2.932316,1.19456 -3.629237,2.40863 -0.16292,0.28382 -0.343842,0.53534 -0.402042,0.55914 -0.134369,0.0549 -0.668494,-0.40974 -0.829924,-0.72192 -0.249208,-0.48191 -0.117927,-0.9967 0.373621,-1.46399 0.30417,-0.28915 0.946581,-0.47506 1.336871,-0.38706 0.414369,0.0935 0.520364,-0.0758 0.152445,-0.24339 -0.741252,-0.33774 -2.009871,0.31623 -2.234489,1.15186 -0.191539,0.71254 0.13489,1.45541 0.81442,1.85364 0.26707,0.15652 0.365868,0.2683 0.365868,0.41393 0,0.47505 0.197739,1.08072 0.444418,1.36167 0.395311,0.45023 0.694095,0.57171 1.422136,0.57671 0.57292,0.004 0.706053,-0.0281 1.282091,-0.31264 0.353452,-0.17462 0.670668,-0.3173 0.704868,-0.3173 0.09137,0 -0.0075,0.40888 -0.207224,0.85783 -0.438758,0.98659 -1.392497,1.92848 -2.352826,2.32337 -1.123561,0.46204 -2.394169,0.1021 -2.394169,-0.67851 0,-0.3637 0.158403,-0.47782 0.321942,-0.23151 0.242861,0.36577 0.766165,0.14535 0.659911,-0.27802 -0.06992,-0.2786 -0.33926,-0.41303 -0.69505,-0.34623 -0.497009,0.0932 -0.752642,0.72682 -0.504362,1.25006 0.136731,0.28812 0.581678,0.60392 1.049549,0.74517 0.632449,0.19093 2.058744,-0.0484 2.768822,-0.46457 0.921811,-0.54021 1.515523,-1.55552 1.734262,-2.96623 0.0987,-0.63655 0.12918,-0.70266 0.51263,-1.10071 0.58968,-0.61213 0.713576,-1.05833 0.293524,-1.05833 -0.260141,0 -0.703318,0.46698 -0.823206,0.86713 -0.197271,0.65843 -1.184265,1.32796 -2.061374,1.39836 -0.82426,0.0662 -1.239637,-0.23167 -1.358056,-0.97358 -0.08307,-0.52039 0.02876,-0.61443 0.732255,-0.61443 0.317979,0 0.78005,-0.0425 1.026811,-0.094 2.069698,-0.43302 3.50565,-3.0001 1.940449,-3.46904 -0.131556,-0.0394 -0.281808,-0.0538 -0.444934,-0.046 z m -7.121012,0.0532 c -0.59206,0 -1.689708,1.50697 -2.268079,3.11402 -0.10526,0.29247 -0.220832,0.54976 -0.256831,0.57206 -0.03603,0.0223 -0.09172,-0.0839 -0.124024,-0.23564 -0.03225,-0.15175 -0.117753,-0.34225 -0.189653,-0.42375 -0.18006,-0.20408 -0.70212,-0.19277 -0.974101,0.0212 -0.279008,0.21951 -0.351697,0.2135 -0.519348,-0.0424 -0.09046,-0.13807 -0.217289,-0.21187 -0.364318,-0.21187 -0.240051,0 -0.617535,0.29377 -0.617535,0.48059 0,0.1318 0.136475,0.14935 0.211873,0.0274 0.08883,-0.14376 0.296625,-0.0934 0.296625,0.0718 0,0.17795 -0.575159,1.78264 -0.691949,1.93063 -0.04214,0.0535 -0.146526,0.0787 -0.232027,0.0563 -0.104859,-0.0274 -0.215675,0.0445 -0.341063,0.22065 -0.213088,0.2993 -0.428398,0.34254 -0.428398,0.0863 0,-0.096 0.171307,-0.69931 0.380855,-1.34048 0.20955,-0.64118 0.380854,-1.23113 0.380854,-1.31103 0,-0.11776 -0.06904,-0.14151 -0.359666,-0.12661 -0.197909,0.0102 -0.449459,-0.0296 -0.559139,-0.0884 -0.329121,-0.17653 -0.723704,-0.0407 -1.232485,0.42427 -0.337309,0.30827 -0.512048,0.55165 -0.638201,0.88883 -0.290391,0.77615 -0.182804,1.73641 0.220657,1.97094 v -5.3e-4 c 0.251071,0.14594 0.491474,0.11087 0.834575,-0.12196 l 0.320911,-0.21807 0.202054,0.21807 c 0.2658,0.2866 0.547542,0.27528 0.902271,-0.0362 0.159105,-0.1397 0.310195,-0.25373 0.335897,-0.25373 0.02569,0 0.05868,0.10448 0.07338,0.23254 0.02257,0.19613 0.0668,0.23306 0.280086,0.23306 0.242472,0 0.266078,-0.0351 0.561207,-0.81907 0.64312,-1.70846 1.444633,-2.62125 1.768883,-2.01538 0.12065,0.22547 0.02665,0.36182 -0.208254,0.30282 -0.280762,-0.0705 -0.490103,0.12194 -0.456303,0.4191 0.04154,0.36505 0.383564,0.38397 0.772044,0.0429 0.162121,-0.14234 0.319751,-0.2589 0.34985,-0.2589 0.03004,0 0.02952,0.24393 -0.0011,0.54209 -0.106759,1.04203 0.129903,1.65455 0.694531,1.79627 0.320821,0.0805 0.769922,-0.17868 0.996323,-0.57516 0.26592,-0.46567 0.104101,-0.4867 -0.31161,-0.0403 -0.201779,0.21668 -0.405501,0.39377 -0.453202,0.39377 -0.04773,0 -0.155461,-0.0755 -0.23926,-0.16795 -0.129252,-0.14285 -0.145071,-0.26792 -0.10387,-0.82579 0.07105,-0.96188 0.253619,-1.41138 0.696597,-1.71617 0.772081,-0.5312 1.555864,-1.69697 1.689304,-2.51199 0.07802,-0.47655 -0.05084,-0.70435 -0.398426,-0.70435 z m -9.203573,0.10077 c 0.285287,-0.008 0.487122,0.10149 0.548288,0.3452 0.08438,0.33621 -0.272582,1.1243 -0.715203,1.57872 -0.43837,0.45005 -0.975961,0.75832 -1.694471,0.97151 -0.502404,0.1491 -1.238031,0.18204 -1.31413,0.0589 -0.136271,-0.22049 0.620768,-1.36305 1.3193,-1.99109 0.673505,-0.60554 1.380741,-0.94912 1.856216,-0.96325 z m 16.548862,0.16175 c 0.193442,-0.006 0.267488,0.0406 0.414962,0.1881 0.258407,0.25837 0.272081,0.48568 0.05684,0.9462 -0.382641,0.81866 -1.128409,1.4611 -2.012797,1.73426 -0.710599,0.21953 -1.700019,0.23629 -1.77922,0.03 -0.08914,-0.23231 0.397338,-1.04214 1.02216,-1.70067 0.66004,-0.69565 1.356236,-1.09357 2.057754,-1.17667 0.09812,-0.0116 0.175816,-0.0193 0.240298,-0.0212 z m -7.395933,0.0269 c 0.0936,-0.007 0.155546,0.0696 0.155546,0.21859 0,0.24649 -0.740439,1.63719 -1.054198,1.97973 -0.29392,0.3209 -0.469738,0.3901 -0.469738,0.185 0,-0.33343 0.851858,-1.98975 1.172538,-2.27997 0.07255,-0.0657 0.139692,-0.0994 0.195852,-0.10335 z m 18.097087,1.1498 c -0.08901,-0.006 -0.155381,0.0311 -0.187068,0.11369 -0.06387,0.16645 0.04738,0.30353 0.460952,0.56947 0.703781,0.45255 0.884057,0.26603 0.309025,-0.31987 -0.222668,-0.22689 -0.434567,-0.35389 -0.582909,-0.36329 z m -8.136453,0.10077 c -0.30376,-0.0351 -0.55925,0.40357 -0.417031,0.71572 0.112152,0.24613 0.293555,0.25474 0.522968,0.0253 0.119567,-0.11955 0.166211,-0.25915 0.148309,-0.44442 -0.02154,-0.2224 -0.0666,-0.27492 -0.254246,-0.29662 z m -26.14414,1.11053 c -0.06457,-0.002 -0.131318,7.9e-4 -0.200507,0.008 -1.21059,0.13069 -2.433362,1.58055 -2.684073,3.18275 -0.05465,0.34925 -0.126696,0.68534 -0.160198,0.74724 -0.03351,0.0619 -0.445428,0.27582 -0.915188,0.47543 -2.21697,0.94208 -3.427494,1.91166 -4.076753,3.26491 -0.29016,0.60467 -0.304377,0.67741 -0.304377,1.52394 0,0.81612 0.019,0.9211 0.231511,1.28261 0.526452,0.89553 1.401236,1.38721 2.628265,1.47691 1.135351,0.083 2.308436,-0.25233 3.455085,-0.98702 0.518861,-0.33243 0.585428,-0.31958 0.583427,0.11111 -0.0024,0.45753 -0.327152,1.38395 -0.67696,1.92908 -0.622411,0.96993 -1.973024,1.94241 -3.101104,2.23345 -0.653979,0.16872 -0.983041,0.16899 -1.548741,0.001 -0.58424,-0.1735 -0.871427,-0.45533 -0.836126,-0.82062 0.02146,-0.22211 0.08644,-0.30129 0.344165,-0.4222 0.341841,-0.16037 0.395306,-0.31214 0.184486,-0.52296 -0.215702,-0.2157 -0.609952,-0.16468 -0.889352,0.11472 -0.32394,0.32392 -0.342376,0.84363 -0.04547,1.28054 0.232489,0.34214 0.898705,0.73339 1.425233,0.83716 1.332842,0.26267 2.727897,-0.26956 3.963067,-1.51205 1.072539,-1.07891 1.606103,-2.20998 1.606103,-3.40445 v -0.5736 l 0.499195,-0.56173 c 0.27442,-0.30914 0.636124,-0.82949 0.804084,-1.156 0.257781,-0.50109 0.305409,-0.67874 0.305409,-1.13946 0,-0.56848 -0.125905,-0.92527 -0.454237,-1.28623 -0.391848,-0.43079 -0.949888,-0.554 -1.847948,-0.40773 -0.362241,0.059 -0.409244,0.0466 -0.531233,-0.13952 -0.186822,-0.28513 -0.09774,-0.43965 0.426329,-0.73949 1.1118,-0.63611 2.207432,-1.71261 2.660822,-2.61483 0.55772,-1.10986 0.123676,-2.15359 -0.84491,-2.18126 z m 34.883658,0.0594 c -1.391811,0.005 -2.50939,2.41889 -1.509469,3.26027 0.284639,0.23948 0.56161,0.26619 0.908471,0.0868 0.281731,-0.14569 0.683162,-0.59907 0.683162,-0.77153 0,-0.18704 -0.151299,-0.14264 -0.30334,0.0894 -0.178181,0.27192 -0.680802,0.58206 -0.842843,0.51986 -0.386739,-0.14841 -0.301919,-1.08707 0.113173,-1.25108 1.184119,-0.46788 1.45624,-0.71079 1.45624,-1.3007 0,-0.3807 -0.202086,-0.63404 -0.505394,-0.63304 z m 5.208985,0.0568 c -0.502092,0.019 -0.859073,0.23198 -1.245405,0.74311 -0.694057,0.91821 -0.712465,2.24559 -0.03566,2.574 0.24657,0.11963 0.434218,0.11498 0.753959,-0.0186 0.300271,-0.12546 0.734322,-0.58624 0.734322,-0.7798 0,-0.19285 -0.105008,-0.1429 -0.45217,0.21497 -0.42626,0.43941 -0.634709,0.50393 -0.833541,0.25839 -0.280178,-0.34601 -0.145245,-0.95528 0.247015,-1.11518 1.13029,-0.46074 1.461246,-0.756 1.461926,-1.30431 5.29e-4,-0.42597 -0.180043,-0.58968 -0.630451,-0.57258 z m -3.739825,0.0274 c -0.208621,0 -0.624769,0.33608 -0.624769,0.50436 0,0.11999 0.196329,0.11167 0.321429,-0.0134 0.06875,-0.0687 0.129384,-0.0737 0.187585,-0.0155 0.05816,0.0582 -0.0667,0.50522 -0.386022,1.38235 -0.259562,0.71297 -0.451967,1.34831 -0.427366,1.41231 0.05634,0.14727 0.423299,0.15214 0.543121,0.008 0.04966,-0.0598 0.192442,-0.39341 0.317291,-0.74104 0.587732,-1.6365 1.341345,-2.53944 1.729095,-2.07223 0.163311,0.19678 0.03761,0.40992 -0.205672,0.34882 -0.392411,-0.0985 -0.634103,0.43776 -0.293523,0.65112 0.217519,0.13628 0.575998,-0.008 0.756026,-0.30282 0.48261,-0.79146 -0.179465,-1.37005 -1.016474,-0.88832 l -0.327628,0.18862 -0.181901,-0.23099 c -0.110411,-0.14039 -0.264023,-0.231 -0.391192,-0.231 z m -10.627259,0.005 c -0.168955,-0.0106 -0.372423,0.0489 -0.527098,0.17054 -0.256881,0.20208 -0.310772,0.47145 -0.07493,0.37465 0.476772,-0.19564 0.481161,-0.099 0.04806,1.01131 -0.368649,0.94513 -0.404984,1.4355 -0.123505,1.66346 0.10994,0.089 0.254426,0.16175 0.321427,0.16175 0.235831,0 0.620014,-0.25934 0.746725,-0.50436 0.184039,-0.35587 0.01259,-0.40439 -0.278537,-0.0786 -0.237789,0.26612 -0.439248,0.27923 -0.439248,0.0284 0,-0.0667 0.15221,-0.522 0.338479,-1.01182 0.345601,-0.90881 0.430736,-1.52521 0.237196,-1.71876 -0.05859,-0.0586 -0.14719,-0.0902 -0.248565,-0.0966 z m 4.784206,0.005 c -0.157229,-0.007 -0.331264,0.0594 -0.485243,0.21343 -0.122759,0.12276 -0.223242,0.2559 -0.223242,0.2961 0,0.10719 0.203821,0.0892 0.321426,-0.0284 0.07568,-0.076 0.126521,-0.0771 0.197922,-0.006 0.07143,0.0714 0.01487,0.32308 -0.221692,0.98702 -0.34607,0.97141 -0.355343,1.34895 -0.03927,1.66502 0.210122,0.21016 0.650589,0.21018 0.923459,5.3e-4 0.206151,-0.15843 0.210844,-0.15775 0.451136,0.0444 v 5.3e-4 c 0.271619,0.22855 0.434623,0.24855 0.721403,0.0894 0.185819,-0.10311 0.52248,-0.53296 0.52348,-0.6687 0.0013,-0.147 -0.26008,-0.0471 -0.388088,0.14832 -0.149751,0.22849 -0.457853,0.28866 -0.457853,0.0894 0,-0.0672 0.190399,-0.66362 0.42323,-1.32551 0.51191,-1.45525 0.520001,-1.53555 0.14986,-1.49964 -0.256498,0.0249 -0.288486,0.066 -0.511596,0.66145 -0.643091,1.71632 -1.010891,2.3704 -1.333251,2.3704 -0.278252,0 -0.259093,-0.28632 0.08526,-1.27382 0.185952,-0.53321 0.33849,-1.06621 0.338998,-1.18391 0.0016,-0.35408 -0.213892,-0.56891 -0.475938,-0.58033 z m -2.252059,0.1385 c -0.632262,-0.0265 -1.516766,0.8787 -1.636078,1.67431 -0.08507,0.56723 0.02564,1.12688 0.27182,1.37304 0.17535,0.17576 0.267954,0.20392 0.543634,0.16692 0.182732,-0.0241 0.33228,-0.0322 0.33228,-0.017 0,0.0151 -0.267095,0.22116 -0.593244,0.45837 -0.91594,0.66621 -1.317122,1.33073 -1.25522,2.07843 0.02146,0.25918 0.07686,0.36084 0.239779,0.44235 0.235928,0.11806 0.423555,0.0827 0.816485,-0.15503 0.636691,-0.38518 1.16627,-1.46662 1.931149,-3.94292 0.30489,-0.9871 0.553971,-1.83135 0.553971,-1.87585 0,-0.0793 -0.577458,-0.17627 -1.204576,-0.20257 z m -18.959568,0.0579 c 0.15153,-0.0116 0.274913,0.088 0.322461,0.2775 0.10981,0.43751 -0.312828,1.6699 -0.784447,2.28824 -0.197181,0.25854 -0.50922,0.36359 -0.65319,0.21962 -0.28755,-0.28755 0.478694,-2.4803 0.956013,-2.73575 0.05514,-0.0295 0.108654,-0.0457 0.159163,-0.0496 z m 30.707687,0.0475 c 0.31492,0 0.244073,0.45091 -0.139526,0.88781 -0.24376,0.27764 -0.519967,0.38302 -0.612367,0.23357 -0.11058,-0.17891 0.521303,-1.12138 0.751893,-1.12138 z m -40.121064,0.009 c 0.151079,-0.005 0.289343,0.0329 0.446484,0.1142 0.535458,0.2769 0.348594,0.97302 -0.468707,1.74408 -0.497488,0.46934 -1.271836,1.03084 -1.785937,1.29501 v -5.3e-4 c -0.30148,0.15501 -0.500089,0.17764 -0.56999,0.0646 -0.06034,-0.0976 0.243219,-1.28052 0.412377,-1.60765 0.217721,-0.42103 1.083578,-1.29727 1.444358,-1.46141 0.206489,-0.0939 0.370335,-0.14305 0.521415,-0.14831 z m 34.800976,0.0139 c 0.02643,-0.002 0.05134,0.001 0.07441,0.01 0.202459,0.0777 0.09572,0.53053 -0.197922,0.83922 -0.50727,0.53326 -0.766572,0.42904 -0.48524,-0.19482 0.168166,-0.37293 0.423756,-0.64049 0.608748,-0.65422 z m -6.336049,0.0847 c 0.108678,-0.008 0.191344,0.0739 0.254249,0.24391 0.152191,0.41139 -0.264856,1.58026 -0.768945,2.15439 -0.236961,0.2699 -0.472782,0.36025 -0.602031,0.231 -0.24026,-0.24026 0.232778,-1.80288 0.707967,-2.33836 0.165375,-0.18632 0.300083,-0.28318 0.40876,-0.29094 z m -0.792199,3.5326 c 0.01683,-0.002 0.03183,-0.002 0.04496,0.002 0.06299,0.0172 0.08272,0.10121 0.05219,0.25373 -0.07815,0.39075 -0.624393,1.45916 -0.900202,1.76114 -0.269672,0.29524 -0.340667,0.31924 -0.492477,0.16743 -0.266642,-0.26665 0.04254,-1.03179 0.696081,-1.7229 0.274701,-0.29049 0.481664,-0.4463 0.599446,-0.46147 z m -30.505114,1.40302 c 0.04021,-0.007 0.06748,-0.006 0.07958,0.001 0.04571,0.0282 0.120288,0.14937 0.165881,0.26923 0.07304,0.19209 0.0428,0.25886 -0.254765,0.56327 -0.38345,0.39228 -0.680162,0.98539 -0.683162,1.36374 -0.0024,0.34498 0.219295,0.6495 0.449585,0.6165 0.245211,-0.0351 0.27518,-0.2731 0.06098,-0.48731 -0.16637,-0.16636 -0.169016,-0.19152 -0.04392,-0.49092 0.151413,-0.36239 0.44128,-0.69867 0.602031,-0.69867 0.06054,0 0.164375,0.10449 0.230475,0.23255 0.16876,0.32706 0.798296,2.36034 0.866098,2.79673 0.05309,0.34191 0.03779,0.37962 -0.275952,0.67696 -0.40118,0.3802 -1.575203,0.9796 -2.269112,1.15858 -0.60153,0.15512 -1.731997,0.16133 -2.204519,0.0119 -1.079653,-0.34146 -1.664282,-1.06853 -1.67328,-2.08049 -0.0095,-1.10866 0.952566,-2.17626 2.724896,-3.02411 1.014047,-0.48509 1.943724,-0.86239 2.225188,-0.90898 z m 1.725993,0.47852 c 0.04869,-0.001 0.0948,5.3e-4 0.136425,0.006 0.54352,0.0729 1.051724,0.37095 1.213363,0.71159 0.199279,0.41995 0.120711,1.09343 -0.204639,1.7539 -0.30076,0.61058 -0.799227,1.14159 -0.907436,0.96686 -0.08558,-0.1382 -1.04955,-3.0121 -1.04955,-3.129 0,-0.13235 0.47102,-0.29974 0.811837,-0.30955 z m 6.047177,0.15038 c -0.292981,0 -0.548794,0.67331 -0.448554,1.18029 0.05818,0.29447 0.04053,0.58862 -0.06821,1.15238 -0.48228,2.50034 -1.822664,4.37545 -3.127973,4.37545 -0.48922,0 -0.781452,-0.16147 -0.977201,-0.54002 -0.106,-0.20501 -0.116494,-0.31038 -0.04599,-0.46509 0.1114,-0.2445 0.228836,-0.25468 0.348816,-0.0305 0.13099,0.24472 0.48786,0.222 0.606682,-0.0387 0.219908,-0.48268 -0.440521,-0.84693 -0.922941,-0.50902 -0.251772,0.17632 -0.37996,0.67084 -0.274921,1.06092 0.09848,0.36574 0.297427,0.56164 0.733806,0.72295 0.68049,0.25155 1.640965,-0.0516 2.326474,-0.73484 0.471019,-0.46944 1.076605,-1.66502 1.347205,-2.6603 0.413449,-1.5207 0.45456,-1.49579 0.988568,0.59066 l 0.302826,1.18288 -0.182935,0.51004 c -0.208211,0.58048 -0.239623,1.10579 -0.06976,1.17099 0.283811,0.1089 0.491141,-0.30377 0.565341,-1.12603 0.06798,-0.75292 0.404098,-1.52093 1.172538,-2.67632 0.871598,-1.31044 1.268785,-1.57075 0.899686,-0.59015 -0.38894,1.03332 -0.571378,1.9126 -0.581877,2.80087 -0.01455,1.23472 0.162835,1.56631 0.839224,1.56631 0.24008,0 0.375735,-0.0652 0.598414,-0.28784 0.158321,-0.15833 0.287837,-0.34925 0.287837,-0.42375 0,-0.19382 -0.06947,-0.16912 -0.338479,0.11886 -0.280471,0.30019 -0.424931,0.31699 -0.643371,0.0754 -0.26094,-0.2885 -0.222957,-1.87341 0.07286,-3.05615 0.37468,-1.49803 0.683393,-2.20214 1.123961,-2.56315 0.383302,-0.31408 0.502161,-0.63717 0.234611,-0.63717 -0.07868,0 -0.316796,0.18271 -0.529166,0.40566 -0.21236,0.22295 -0.564648,0.54731 -0.782897,0.72089 -0.491472,0.39086 -1.28796,1.43705 -1.81746,2.38797 -0.40509,0.72749 -0.58779,0.87517 -0.656291,0.52865 -0.02072,-0.10477 -0.233048,-1.0211 -0.471808,-2.03605 -0.238752,-1.01496 -0.410786,-1.91974 -0.381886,-2.01073 0.04085,-0.12877 0.01275,-0.16537 -0.127124,-0.16537 z m 28.93415,0.004 c -0.154181,0.008 -0.341908,0.0482 -0.476456,0.11782 -0.174501,0.0902 -0.320408,0.10174 -0.567407,0.0444 -1.229122,-0.28506 -3.014052,0.21872 -3.727421,1.05213 -0.303451,0.35451 -0.54302,0.9956 -0.54002,1.44332 0.0026,0.35518 0.280403,0.93883 0.520383,1.09348 0.589089,0.37963 1.347184,0.14995 1.814874,-0.54984 0.26528,-0.39699 0.415513,-0.96165 0.320911,-1.2082 -0.08798,-0.22925 -0.20257,-0.14694 -0.20257,0.14573 0,0.3784 -0.381098,1.11773 -0.688848,1.33687 -0.13788,0.0982 -0.398225,0.19853 -0.578776,0.22273 -0.273291,0.0367 -0.364639,0.007 -0.546219,-0.17415 -0.17407,-0.17407 -0.218239,-0.3002 -0.217559,-0.62425 0.0027,-1.3104 1.536078,-2.56767 3.125909,-2.56367 0.65555,0.002 0.776824,0.0914 0.535884,0.39687 -0.49195,0.62372 -0.81839,1.29306 -1.215429,2.49288 -0.53997,1.6317 -0.913908,2.40317 -1.420069,2.93108 -0.39573,0.41274 -0.977284,0.69712 -1.425753,0.69712 -0.62824,0 -1.180531,-0.59928 -0.97255,-1.05575 0.124529,-0.27368 0.25287,-0.27301 0.3576,0.003 0.06547,0.1722 0.130752,0.21189 0.315225,0.19069 0.19722,-0.0227 0.23685,-0.0714 0.260451,-0.31936 0.03209,-0.33732 -0.138364,-0.5116 -0.500227,-0.5116 -0.481812,0 -0.808739,0.57251 -0.65681,1.1498 0.0844,0.3207 0.298564,0.52238 0.721405,0.67903 v 5.3e-4 c 1.193808,0.44227 2.957677,-0.84271 3.497977,-2.54868 0.148551,-0.46889 0.237027,-0.56565 0.426847,-0.46406 0.27436,0.14687 0.994699,0.0956 1.373561,-0.0977 0.917538,-0.46811 1.332735,-1.02423 1.332735,-1.78543 0,-0.60597 -0.130029,-0.8735 -0.642339,-1.32446 -0.40757,-0.35875 -0.457185,-0.6041 -0.122473,-0.6041 0.09459,0 0.172082,-0.0382 0.172082,-0.0848 0,-0.063 -0.120737,-0.0887 -0.274918,-0.0811 z m -19.174023,0.33486 c -0.35618,0 -1.202164,0.89755 -1.654162,1.75493 -1.039061,1.9709 -1.260041,3.88405 -0.496612,4.29896 0.395189,0.21479 0.675735,0.15781 1.045413,-0.21187 0.186262,-0.18626 0.367679,-0.33848 0.403077,-0.33848 0.03543,0 0.112451,0.11534 0.171051,0.25683 0.18451,0.44543 0.722201,0.56595 1.12241,0.25115 0.118401,-0.0931 0.250962,-0.1695 0.294555,-0.1695 0.04365,0 0.148246,0.0764 0.232545,0.1695 0.19658,0.21707 0.589198,0.21757 0.864547,0.001 0.22451,-0.17658 0.363286,-0.15915 0.363286,0.046 0,0.15327 0.453607,0.16595 0.568958,0.016 0.04478,-0.0582 0.206814,-0.42171 0.360185,-0.80822 0.327853,-0.82625 0.793472,-1.57767 1.179772,-1.90272 0.522779,-0.4399 0.566309,-0.12024 0.119888,0.88677 -0.340609,0.76831 -0.467088,1.57942 -0.28112,1.8035 0.05787,0.0697 0.238249,0.12661 0.40101,0.12661 0.23086,0 0.36833,-0.0722 0.624769,-0.32866 0.32439,-0.32438 0.428826,-0.60545 0.222724,-0.59945 -0.0582,0.002 -0.210344,0.15398 -0.337963,0.33848 -0.127609,0.1845 -0.289367,0.3359 -0.359667,0.3359 -0.215791,0 -0.147624,-0.37892 0.211355,-1.17616 0.526682,-1.16961 0.540646,-1.78167 0.04393,-1.90634 -0.229291,-0.0575 -0.773695,0.17216 -0.970484,0.40928 -0.158671,0.19119 -0.237453,0.16639 -0.386022,-0.12093 -0.17911,-0.34633 -0.624176,-0.36041 -0.885735,-0.0279 -0.209759,0.26682 -0.11417,0.43696 0.151929,0.27078 0.0965,-0.0602 0.197908,-0.0868 0.225309,-0.0594 0.06261,0.0626 -0.412382,1.44603 -0.617532,1.79833 -0.08394,0.14416 -0.233897,0.27344 -0.332799,0.28784 -0.09888,0.0144 -0.240207,0.11942 -0.314708,0.23306 -0.133411,0.20362 -0.336045,0.27094 -0.417545,0.13901 -0.02294,-0.0371 0.145815,-0.63695 0.375169,-1.33325 0.229362,-0.6963 0.417645,-1.33397 0.418063,-1.41697 5.29e-4,-0.12489 -0.06842,-0.14907 -0.401527,-0.14107 -0.221183,0.005 -0.525692,-0.0168 -0.676444,-0.0491 -0.404548,-0.0866 -0.664919,0.01 -1.092438,0.4036 -0.451281,0.41597 -0.690877,0.84876 -0.763778,1.38027 -0.03337,0.24346 -0.113945,0.42778 -0.219625,0.50178 -0.0919,0.0644 -0.238895,0.23516 -0.326594,0.37931 -0.08767,0.14415 -0.258855,0.30717 -0.380857,0.36277 -0.197228,0.0899 -0.240956,0.078 -0.391708,-0.10749 -0.144568,-0.17785 -0.162539,-0.28944 -0.121438,-0.75861 0.0265,-0.30269 0.108934,-0.75047 0.182935,-0.99477 0.113768,-0.37576 0.206304,-0.49715 0.601512,-0.7891 0.818692,-0.6048 1.51784,-1.70068 1.61644,-2.53318 0.05726,-0.48351 -0.04983,-0.67851 -0.37207,-0.67851 z m 22.162471,0.0103 c -0.196118,0.001 -0.318101,0.10135 -0.759643,0.55501 -0.61831,0.63526 -1.122254,1.51179 -1.476912,2.56831 -0.472482,1.40738 -0.464169,2.37532 0.02479,2.81224 h 5.3e-4 c 0.413199,0.3692 0.833247,0.29773 1.302244,-0.2217 0.18551,-0.20545 0.248772,-0.23596 0.288872,-0.13745 0.02823,0.0694 0.156229,0.23167 0.284737,0.36018 0.2813,0.28129 0.64039,0.30544 0.947229,0.0641 0.118402,-0.0931 0.250857,-0.1695 0.294556,-0.1695 0.04364,0 0.148243,0.0764 0.232545,0.1695 0.185938,0.20549 0.564994,0.21967 0.852143,0.0315 0.19581,-0.12811 0.222287,-0.12791 0.371039,0.007 0.08809,0.0797 0.247438,0.13219 0.354499,0.11679 0.20687,-0.0297 0.272357,-0.13251 0.637688,-1.00149 0.488294,-1.16147 1.261616,-2.15354 1.514634,-1.94355 0.127341,0.10568 0.129125,0.0997 -0.313674,1.1498 -0.491821,1.16633 -0.437417,1.80971 0.152961,1.80971 0.23944,0 0.372512,-0.0692 0.632002,-0.32866 0.306451,-0.30641 0.429858,-0.60255 0.251148,-0.60255 -0.04265,0 -0.198184,0.15222 -0.345715,0.33848 -0.29205,0.36875 -0.508495,0.43925 -0.508495,0.16537 0,-0.0955 0.158615,-0.54313 0.351917,-0.99477 0.531339,-1.2414 0.525973,-1.79158 -0.0181,-1.92237 -0.163009,-0.0392 -0.328676,0.0232 -0.668176,0.25166 -0.479181,0.32243 -0.485201,0.3225 -0.632521,0.0253 -0.184459,-0.37208 -0.980302,-0.21733 -0.980302,0.19069 0,0.20369 0.06566,0.21084 0.266652,0.0289 0.295513,-0.26747 0.264015,0.0904 -0.09198,1.03508 -0.33465,0.88804 -0.435742,1.04655 -0.665593,1.04955 -0.06044,7.9e-4 -0.197017,0.10315 -0.303856,0.22737 -0.12129,0.14097 -0.244536,0.20657 -0.327628,0.17467 -0.142402,-0.0546 -0.141171,-0.0592 0.480589,-1.95647 0.312042,-0.95227 0.304919,-0.99134 -0.183451,-0.98134 -0.221189,0.005 -0.546249,-0.0177 -0.721919,-0.0491 -0.437091,-0.0782 -0.754245,0.0713 -1.198893,0.56586 -0.358791,0.39906 -0.640273,1.00914 -0.640273,1.38699 0,0.21616 -0.849119,1.14154 -1.04748,1.14154 -0.07378,0 -0.199454,-0.0996 -0.279054,-0.22118 -0.128198,-0.19571 -0.133625,-0.29494 -0.04702,-0.86765 0.167129,-1.10526 0.23145,-1.24608 0.74259,-1.62367 0.944679,-0.69788 1.59797,-1.78411 1.60197,-2.66392 l 0.0021,-0.50798 -0.286806,-0.0274 c -0.03219,-0.003 -0.0619,-0.005 -0.08992,-0.005 z m -3.528984,0.32815 c 0.24383,0 0.710391,0.48137 0.812872,0.8387 0.09873,0.34425 0.03501,0.69741 -0.217043,1.20251 -0.267939,0.53695 -0.609627,0.92374 -0.937927,1.06092 -0.388369,0.16225 -0.577205,0.14469 -0.836126,-0.078 l -0.22479,-0.19378 0.250629,-0.80306 c 0.3976,-1.27198 0.826884,-2.02726 1.152385,-2.02726 z m -18.685163,0.0165 c 0.118912,-0.01 0.175159,0.1019 0.114721,0.31265 -0.118841,0.41438 -0.671574,1.40819 -0.989603,1.77973 -0.292711,0.34192 -0.376491,0.39452 -0.47439,0.29663 -0.129291,-0.1293 0.728144,-1.9054 1.079003,-2.23501 0.1046,-0.0983 0.198919,-0.14807 0.270269,-0.154 z m 22.178491,0.009 c 0.129217,-0.0166 0.208725,0.0727 0.159163,0.24959 -0.116149,0.41469 -0.69573,1.46066 -1.003041,1.81075 -0.627319,0.71462 -0.651766,0.33523 -0.05633,-0.86403 0.232921,-0.46912 0.51684,-0.94078 0.630971,-1.048 0.09622,-0.0904 0.191698,-0.13835 0.269234,-0.14831 z m 7.915794,0.57619 c -0.03573,0.003 -0.07654,0.0107 -0.122473,0.0222 -0.169871,0.0426 -0.253119,0.17583 -0.4439,0.70951 -0.28776,0.80501 -0.322029,0.8521 -0.650089,0.8847 -0.298259,0.0296 -0.432183,0.23772 -0.152963,0.23772 0.09848,0 0.202295,0.0611 0.230994,0.1359 0.02869,0.0748 -0.106063,0.61784 -0.299723,1.20665 -0.3786,1.15107 -0.433514,1.64267 -0.210322,1.88929 h 5.29e-4 c 0.170148,0.18802 0.601287,0.20218 0.850077,0.0279 0.169249,-0.11853 0.5333,-0.63131 0.5333,-0.75085 0,-0.0294 -0.05671,-0.0538 -0.126606,-0.0538 -0.0699,0 -0.127124,0.0344 -0.127124,0.076 0,0.16686 -0.494605,0.60105 -0.626835,0.55035 -0.19738,-0.0757 -0.173048,-0.21925 0.237712,-1.38803 0.61722,-1.75624 0.577426,-1.6904 1.009756,-1.6924 0.269909,-0.002 0.27568,-0.19271 0.0072,-0.24391 -0.27065,-0.0516 -0.279516,-0.17589 -0.0584,-0.83354 0.201951,-0.60064 0.198969,-0.79924 -0.05116,-0.77773 z m -32.686892,0.49093 c -0.135382,0.0188 -0.350451,0.17204 -0.605131,0.44906 -0.222592,0.24211 -0.385763,0.47068 -0.36277,0.50798 0.06587,0.10657 0.128452,0.0852 0.624252,-0.21239 0.35473,-0.2129 0.472078,-0.33365 0.492477,-0.50746 0.01712,-0.14567 -0.019,-0.22351 -0.0956,-0.23719 -0.01595,-0.003 -0.03389,-0.003 -0.05323,0 z m 9.906889,0.10852 c -0.191381,-0.0116 -0.428916,0.22148 -0.428916,0.58239 0,0.12158 0.02521,0.2465 0.05633,0.2775 0.234781,0.23479 0.645149,-0.13734 0.60565,-0.54932 -0.01998,-0.20834 -0.118232,-0.3036 -0.233061,-0.31057 z m -0.509014,1.25418 c -0.150415,0.007 -0.314983,0.0917 -0.469738,0.25322 -0.260191,0.27198 -0.228828,0.44383 0.04909,0.27027 0.175049,-0.10931 0.331245,-0.0705 0.331245,0.0827 0,0.0484 -0.152212,0.46612 -0.338481,0.92811 -0.369229,0.91581 -0.431083,1.44158 -0.198953,1.69808 0.22606,0.24981 0.643387,0.19925 0.950846,-0.11523 0.14523,-0.14854 0.264067,-0.32038 0.264067,-0.38138 0,-0.18517 -0.226221,-0.1242 -0.373621,0.10077 -0.1418,0.21645 -0.338616,0.27638 -0.428916,0.13023 -0.02777,-0.0449 0.104233,-0.49255 0.293524,-0.99477 0.43271,-1.14805 0.490085,-1.47749 0.305924,-1.75855 -0.09806,-0.14967 -0.234574,-0.22049 -0.38499,-0.21343 z m -10.175089,5.3e-4 c -0.60889,0 -1.139314,0.43165 -1.560113,1.26969 -0.378219,0.75327 -0.309729,1.58447 0.162264,1.96681 0.374899,0.30368 1.042006,0.11205 1.435055,-0.41186 0.0847,-0.11283 0.141925,-0.26413 0.127124,-0.33693 -0.01939,-0.0953 -0.138586,-0.022 -0.426847,0.26251 -0.456959,0.4511 -0.716041,0.48261 -0.894519,0.10904 -0.0831,-0.17393 -0.08851,-0.31195 -0.02222,-0.5581 0.08177,-0.30365 0.130334,-0.34324 0.677995,-0.55811 0.741199,-0.2908 1.104323,-0.66806 1.104323,-1.14722 0,-0.42307 -0.174903,-0.59583 -0.603062,-0.59583 z m 12.941329,5.3e-4 c -1.145849,0.001 -2.212805,1.81483 -1.681035,2.85719 0.09839,0.19285 0.24583,0.38949 0.327628,0.43719 0.248571,0.14477 0.658537,0.10235 0.953947,-0.0987 0.355921,-0.24224 0.630272,-0.61005 0.550871,-0.73846 -0.04054,-0.0656 -0.186703,0.0318 -0.432014,0.28784 -0.20397,0.21287 -0.444768,0.38705 -0.535369,0.38705 -0.245258,0 -0.430948,-0.23155 -0.429948,-0.53536 0.0021,-0.46335 0.167743,-0.66472 0.687814,-0.83768 0.92661,-0.30815 1.406519,-1.01082 1.055751,-1.54616 -0.11298,-0.17247 -0.208336,-0.21325 -0.497645,-0.21291 z m 22.653913,0.005 c -0.06399,1.3e-4 -0.142882,0.005 -0.241845,0.0134 -0.57572,0.0478 -0.913034,0.30193 -1.323432,0.99787 -0.516221,0.875 -0.513384,1.80252 0.0062,2.21124 0.271481,0.21352 0.686157,0.20067 1.02733,-0.0315 0.355909,-0.24224 0.630269,-0.60954 0.55087,-0.73794 -0.04054,-0.0656 -0.186706,0.0318 -0.432017,0.28783 -0.20397,0.21287 -0.445283,0.38706 -0.535884,0.38706 -0.245259,0 -0.43043,-0.23154 -0.42943,-0.53537 0.0021,-0.4524 0.169646,-0.66339 0.656807,-0.82837 1.00189,-0.3393 1.461693,-1.02578 1.066086,-1.5906 -0.09176,-0.13099 -0.15272,-0.17403 -0.344683,-0.17363 z m -31.003792,0.24236 c 0.24016,-0.0143 0.364503,0.30747 0.247531,0.84543 -0.138301,0.63609 -0.628674,1.64846 -0.903304,1.86448 -0.266091,0.2093 -0.315999,0.21431 -0.455271,0.0465 -0.255042,-0.30733 0.225891,-1.98071 0.723472,-2.51716 0.14524,-0.15658 0.27841,-0.23278 0.387572,-0.23926 z m 22.237919,0.0155 c 0.213143,0.0223 0.317341,0.34143 0.200504,0.86351 -0.129368,0.57811 -0.552426,1.47474 -0.836639,1.77302 -0.251822,0.26427 -0.377031,0.28895 -0.530201,0.10439 -0.239691,-0.28881 0.201001,-1.84706 0.68988,-2.44016 0.181763,-0.22051 0.348572,-0.31411 0.476456,-0.30076 z m -26.899131,0.0181 c 0.323119,-0.0135 0.150045,0.72204 -0.33383,1.0666 -0.31528,0.22455 -0.432533,0.22292 -0.432533,-0.007 0,-0.24313 0.384963,-0.8917 0.596863,-1.00511 0.06695,-0.0358 0.123338,-0.0529 0.1695,-0.0548 z m 35.366832,0.005 c 0.04895,-0.0126 0.09001,0.006 0.143143,0.0501 0.23468,0.19476 0.0035,0.7397 -0.436666,1.02991 v 5.3e-4 c -0.27046,0.17829 -0.334108,0.19027 -0.404109,0.077 -0.07145,-0.11562 0.265547,-0.79538 0.506947,-1.02216 0.08462,-0.0795 0.141732,-0.12282 0.190685,-0.13539 z m -22.517488,0.0103 c 0.05092,-0.009 0.0981,0.005 0.141075,0.0408 0.07069,0.0587 0.128159,0.14363 0.128159,0.18913 0,0.21735 -0.3097,0.69535 -0.54312,0.83768 -0.468149,0.28548 -0.557697,0.15193 -0.273368,-0.40876 0.207674,-0.40953 0.394499,-0.63301 0.547254,-0.65888 z m -23.625948,6.97322 c -0.01643,0.005 -0.0313,0.022 -0.04444,0.047 0.01778,-0.0149 0.03548,-0.03 0.05323,-0.045 -0.0028,2.7e-4 -0.0061,-0.003 -0.0088,-0.002 z m -0.121441,0.83974 c -2.06e-4,-0.001 -0.01283,0.008 -0.01497,0.008 -1.54e-4,0.005 -2.38e-4,0.009 -5.29e-4,0.0134 0.0079,-0.009 0.0159,-0.0185 0.0155,-0.0212 z"
       inkscape:connector-curvature="0" />
    <path
       id="path3798"
       style="fill:#3b2009;fill-opacity:1;stroke-width:0.08466667"
       d="m 61.07558,143.54553 c -0.515503,0.0192 -1.027697,0.34111 -1.35392,0.95912 -0.254722,0.48212 -0.255474,1.39516 -0.0026,1.87069 0.209939,0.3945 0.571995,0.7594 0.872815,0.87901 h 5.3e-4 c 0.460351,0.18302 1.15416,0.0443 1.553911,-0.31057 0.31668,-0.28113 0.561165,-0.95261 0.561205,-1.54203 2.1e-5,-0.45804 -0.04352,-0.62552 -0.257347,-0.99839 -0.340225,-0.59327 -0.859089,-0.87697 -1.374595,-0.85783 z m 3.4339,3.46491 c -0.54307,0 -0.812464,0.40461 -0.952912,1.4304 -0.129551,0.94617 -0.365705,1.68181 -0.829924,2.58434 -0.367972,0.71541 -1.083181,1.71095 -1.327052,1.84743 -0.238811,0.13365 -1.255181,-1.2639 -1.725991,-2.37298 -0.324731,-0.76494 -0.424553,-1.12889 -0.566891,-2.07429 -0.176702,-1.17354 -0.498711,-1.54109 -1.197861,-1.36684 -0.218009,0.0543 -0.379728,0.17139 -0.517798,0.37517 -0.17676,0.26087 -0.19381,0.3574 -0.145211,0.8046 0.11312,1.04092 0.96167,3.12556 1.68362,4.13618 0.204521,0.28631 0.605044,0.73604 0.890384,0.99942 0.3029,0.27962 0.500391,0.52633 0.47439,0.59273 -0.06885,0.17587 -1.164614,0.96099 -1.957504,1.4025 -1.063019,0.59192 -1.232712,0.7888 -0.835091,0.96997 0.447961,0.2041 1.88246,-0.32381 3.12384,-1.1498 l 0.719852,-0.47904 0.568957,0.38964 c 0.78264,0.53582 1.538335,0.90332 2.487705,1.20923 0.442381,0.14253 0.880483,0.27602 0.973585,0.29662 0.09314,0.0205 0.195691,0.042 0.227891,0.047 0.03218,0.005 0.08414,-0.0313 0.115239,-0.0816 0.09666,-0.1564 -0.390686,-0.57674 -1.316715,-1.13585 -1.108429,-0.66924 -2.031918,-1.36346 -2.031918,-1.52756 0,-0.0686 0.104514,-0.21024 0.232545,-0.31471 0.733899,-0.59882 1.388698,-1.48295 1.889808,-2.55229 1.214329,-2.5913 1.220232,-4.03025 0.01704,-4.03025 z"
       inkscape:connector-curvature="0" />
    <text
       xml:space="preserve"
       style="font-style:normal;font-variant:normal;font-weight:normal;font-stretch:normal;font-size:5.29166698px;line-height:1.25;font-family:Dingbats;-inkscape-font-specification:Dingbats;letter-spacing:0px;word-spacing:0px;fill:#3b230f;fill-opacity:1;stroke:none;stroke-width:0.26458332"
       x="61.613327"
       y="190.07878"
       id="text4460"><tspan
         sodipodi:role="line"
         id="tspan4458"
         x="61.613327"
         y="190.07878"
         style="font-style:normal;font-variant:normal;font-weight:300;font-stretch:normal;font-size:5.29166698px;line-height:1.25;font-family:'Opinion Pro';-inkscape-font-specification:'Opinion Pro Light';text-align:center;text-anchor:middle;fill:#3b230f;fill-opacity:1;stroke-width:0.26458332"
         dx="0"
         rotate="0 0 0 0 0 0 0 0 0 0 0 0 0 0">MASSOTHÉRAPIE</tspan></text>
  </g>
</svg>
