<?xml version="1.0" encoding="UTF-8" standalone="no"?>
<!-- Created with Inkscape (http://www.inkscape.org/) -->

<svg
   xmlns:dc="http://purl.org/dc/elements/1.1/"
   xmlns:cc="http://creativecommons.org/ns#"
   xmlns:rdf="http://www.w3.org/1999/02/22-rdf-syntax-ns#"
   xmlns:svg="http://www.w3.org/2000/svg"
   xmlns="http://www.w3.org/2000/svg"
   xmlns:sodipodi="http://sodipodi.sourceforge.net/DTD/sodipodi-0.dtd"
   xmlns:inkscape="http://www.inkscape.org/namespaces/inkscape"
   width="25mm"
   height="25mm"
   viewBox="0 0 25 25"
   version="1.1"
   id="svg8"
   inkscape:version="0.92.3 (2405546, 2018-03-11)"
   sodipodi:docname="logo.svg">
  <defs
     id="defs2" />
  <sodipodi:namedview
     id="base"
     pagecolor="#ffffff"
     bordercolor="#666666"
     borderopacity="1.0"
     inkscape:pageopacity="0.0"
     inkscape:pageshadow="2"
     inkscape:zoom="8"
     inkscape:cx="45.867817"
     inkscape:cy="45.757962"
     inkscape:document-units="mm"
     inkscape:current-layer="layer1"
     showgrid="false"
     inkscape:window-width="1920"
     inkscape:window-height="1016"
     inkscape:window-x="1280"
     inkscape:window-y="267"
     inkscape:window-maximized="1"
     fit-margin-top="0"
     fit-margin-left="0"
     fit-margin-right="0"
     fit-margin-bottom="0" />
  <metadata
     id="metadata5">
    <rdf:RDF>
      <cc:Work
         rdf:about="">
        <dc:format>image/svg+xml</dc:format>
        <dc:type
           rdf:resource="http://purl.org/dc/dcmitype/StillImage" />
        <dc:title></dc:title>
      </cc:Work>
    </rdf:RDF>
  </metadata>
  <g
     inkscape:label="Layer 1"
     inkscape:groupmode="layer"
     id="layer1"
     transform="translate(-49.993839,-137.47878)">
    <rect
       style="fill:#ffffff;fill-opacity:1;stroke-width:0.11325864"
       id="rect4435"
       width="25"
       height="25"
       x="49.993839"
       y="137.47878"
       rx="6" />
    <path
       id="path3806"
       style="fill:#eac12b;fill-opacity:1;stroke-width:0.08466667"
       d="m 62.561426,139.44108 -5.29e-4,5.3e-4 -5.29e-4,5.3e-4 -5.29e-4,5.3e-4 -5.3e-4,5.3e-4 c -2.253115,-0.0165 -4.506092,0.67975 -6.371703,2.07739 -1.320872,0.98955 -2.745309,2.73575 -3.34295,4.09743 -0.92796,2.11427 -1.162807,4.61302 -0.640786,6.82232 0.229348,0.97067 0.779547,2.3537 1.120343,2.81636 0.111467,0.15119 0.231045,0.27492 0.265618,0.27492 0.03463,0 0.211431,-0.19993 0.39274,-0.44441 0.425577,-0.57382 1.466286,-1.60727 2.134237,-2.11926 0.87761,-0.67269 3.171175,-1.73427 3.918625,-1.82986 0.0037,-0.002 0.0075,-0.004 0.01138,-0.005 0.01209,-0.004 0.02429,-0.006 0.03669,-0.008 -7.94e-4,3e-5 -0.0013,-4e-5 -0.0021,0 -5.29e-4,4e-5 0.0011,-2.1e-4 0.0016,-5.3e-4 0.0038,-0.001 0.0076,-0.001 0.01138,-0.002 0.0042,-8e-4 0.0082,-0.002 0.01241,-0.003 0.0033,-2.4e-4 0.0066,-1.6e-4 0.0098,-5.3e-4 l 5.29e-4,-5.3e-4 c 7.93e-4,-2.6e-4 0.0016,-7.9e-4 0.0026,-0.001 0.0079,-0.003 0.01384,-0.003 0.02066,-0.005 0.009,-0.005 0.01805,-0.01 0.02739,-0.0134 0.0024,-8e-4 0.01802,-0.005 0.01757,-0.005 l 5.3e-4,-5.3e-4 c 0.003,-0.002 0.0063,-0.003 0.0093,-0.005 0.0043,-0.002 0.0085,-0.005 0.01291,-0.007 0.02082,-0.009 0.06483,-0.0258 0.0186,-0.008 2.64e-4,-1.2e-4 7.94e-4,-2.1e-4 0.0011,-5.3e-4 0.0021,-0.001 0.0177,-0.009 0.02066,-0.01 0.0046,-5.3e-4 0.01217,-0.002 0.05013,-0.0186 0.0021,-0.001 -0.0088,0.002 -0.01913,0.005 0.0042,-0.001 0.01659,-0.005 0.01241,-0.004 0.0038,-0.001 0.0076,-0.002 0.01138,-0.004 0.0021,-0.001 0.0046,-0.001 0.0067,-0.002 0.0021,-8e-4 0.004,-0.002 0.0062,-0.003 0.0019,-5.3e-4 0.0038,-5.3e-4 0.0057,-5.3e-4 0.0167,-0.006 0.03341,-0.0123 0.05116,-0.015 0.0024,-8e-4 0.0047,-0.003 0.0072,-0.003 0.004,-7.9e-4 0.0083,-7.9e-4 0.01241,-0.002 0.0083,-0.002 0.01744,-0.005 0.02119,-0.006 0.01556,-0.003 0.02956,-0.002 0.04393,-0.001 7.94e-4,-2.6e-4 0.0016,-0.002 0.0026,-0.003 0.01191,-0.004 0.02932,-0.012 0.02326,-0.006 -0.006,0.005 -0.02551,0.009 -0.02273,0.007 5.29e-4,-1.4e-4 0.0013,1.4e-4 0.0021,0 0.0074,-0.002 0.01474,-0.003 0.02222,-0.005 0.0038,-0.002 0.0076,-0.003 0.01138,-0.004 0.0016,-2.7e-4 0.0031,-10e-4 0.0047,-0.002 0.003,-8e-4 0.0053,-0.002 0.0083,-0.003 0.0019,-2.6e-4 0.0034,-4e-5 0.0062,-5.3e-4 0.0016,-2.6e-4 0.0016,-9e-5 0.0031,-5.3e-4 v 5.3e-4 c -0.0032,0.001 -0.01421,0.004 -0.02119,0.007 0.0043,-7.9e-4 0.0081,-0.002 0.01241,-0.003 0.005,-10e-4 0.0099,-0.003 0.01498,-0.004 0.0013,-1.8e-4 0.003,6e-5 0.0041,0 0.005,-0.001 0.01005,-0.002 0.01498,-0.003 0.008,-0.002 -0.01132,10e-6 -0.02479,0.002 0.0011,-2.6e-4 0.0016,-7.9e-4 0.0031,-0.001 0.0052,-0.002 0.02064,-0.009 0.03721,-0.0119 -0.0054,7.9e-4 -0.01061,0.001 -0.0155,0.003 -7.94e-4,1.8e-4 -0.0013,2.1e-4 -0.0021,5.3e-4 -0.0026,5.3e-4 -0.0052,8e-4 -0.0078,0.002 0.0031,-0.001 0.0062,-0.002 0.0093,-0.004 -2.64e-4,9e-5 0.0013,-5.3e-4 0.0011,-5.3e-4 0.01156,-0.004 0.03142,-0.013 0.03514,-0.0108 0.0038,-0.002 0.0074,-0.005 0.01138,-0.007 0.01296,-0.006 0.02715,-0.009 0.04082,-0.0139 0.0072,-0.002 0.01434,-0.005 0.0217,-0.005 0.0011,7e-5 -0.05785,0.0161 0.0062,-0.002 0.0021,-5.3e-4 0.0037,-8e-4 0.0057,-10e-4 0.0031,-8e-4 0.0044,-5.3e-4 0.0093,-0.002 0.004,-0.003 0.0079,-0.006 0.01188,-0.009 -0.0063,0.003 -0.0011,7.9e-4 -0.01138,0.005 -0.0045,0.002 0.0085,-0.005 0.01291,-0.007 7.94e-4,-5.2e-4 0.0024,-5.2e-4 0.0031,-0.001 0.0013,-0.001 0.0028,-0.002 0.0041,-0.003 0.0061,-0.002 0.01908,-0.007 0.02326,-0.008 -6.6e-5,1e-5 0.0016,-5.3e-4 0.0016,-5.3e-4 0.01328,-0.006 0.02593,-0.013 0.04031,-0.016 0.0081,-0.002 0.03074,-0.008 0.04289,-0.009 0.0095,-0.001 0.01889,-0.002 0.02842,-0.003 0.0051,-0.005 0.01402,-0.006 0.02687,-0.005 0.0016,-2.6e-4 0.0028,-5.3e-4 0.0036,-5.3e-4 2.31e-4,-2e-5 0.0013,-6e-5 0.0011,0 5.29e-4,-6e-5 0.0016,4e-5 0.0021,0 0.0069,-5.3e-4 0.0155,-0.004 0.02326,-0.006 0.02764,-0.008 0.05531,-0.0133 0.0863,-0.0176 0.05118,-0.007 0.0965,-0.007 0.135909,-0.002 0.0385,0.005 0.07015,0.0166 0.09715,0.031 0.0013,-1.5e-4 0.0038,-0.001 0.0052,-0.001 0.01791,-5.3e-4 0.03549,0.002 0.05788,0.004 0.12129,0.009 0.123835,0.0476 0.08526,0.0961 0.0029,2.7e-4 0.0059,1.1e-4 0.0088,5.3e-4 0.02513,0.002 0.0442,0.008 0.06356,0.0119 0.0026,-2.6e-4 0.0052,-7.9e-4 0.0078,-0.001 0.03324,-1.2e-4 0.05712,1.6e-4 0.08785,0 0.01968,-1.4e-4 0.03921,-4e-5 0.05891,0 0.0051,-0.002 0.03037,-0.01 0.01344,-0.005 0.0576,-0.015 0.116464,-0.0342 0.176731,-0.0372 0.01027,-0.002 0.02019,-0.005 0.03049,-0.007 0.04452,-0.007 0.09015,-0.004 0.134874,-0.002 0.01368,1.3e-4 0.02766,-1.6e-4 0.04134,-5.3e-4 0.01701,1.7e-4 0.03364,4e-5 0.05064,0 0.03394,-3e-5 0.06787,-1e-5 0.101804,0 0.0041,0 0.0083,1e-5 0.01241,0 0.03046,-0.008 0.05861,-0.0157 0.121441,-0.0207 0.02056,-0.002 0.04117,0.002 0.0615,0.006 -0.0021,-2.3e-4 -0.0044,-7.9e-4 -0.0067,-0.001 0.01921,-10e-4 0.03866,-5.3e-4 0.05788,-5.3e-4 0.03363,-0.006 0.05795,-0.0105 0.102835,-0.0108 7.94e-4,-1e-5 0.0019,0 0.0026,0 0.02289,-0.003 0.04562,-0.007 0.06873,-0.008 0.03824,-5.3e-4 0.07668,0.001 0.114721,0.002 0.03306,-2e-4 0.06616,-5.3e-4 0.09922,-5.3e-4 0.049,1.7e-4 0.09776,1e-5 0.146761,0 0.0357,-1e-5 0.07127,0 0.106971,0 0.03056,-5.3e-4 0.05764,0.004 0.08578,0.0109 0.08899,0.008 0.05845,0.005 0.08888,0.009 0.0049,5.3e-4 0.0062,1.6e-4 0.0093,5.3e-4 5.29e-4,1.6e-4 0.0021,5.3e-4 0.0016,5.3e-4 -0.0064,-0.001 -0.0071,-5.3e-4 -0.01085,-0.001 -0.0159,-0.002 -0.03966,-0.004 -0.02997,-0.003 0.206539,0.0481 0.09687,0.006 0.190688,0.0439 0.0505,-0.0129 -0.106127,-0.0196 -0.07907,-0.0243 0.0155,-0.003 0.03135,0.003 0.04702,0.005 0.02659,0.003 0.05253,0.009 0.07855,0.0155 -0.0029,-0.001 -0.0059,-0.002 -0.0088,-0.003 -0.01416,-0.005 0.02965,0.007 0.04444,0.01 -0.01175,-0.003 -0.02387,-0.004 -0.03565,-0.007 0.01614,0.006 0.03274,0.0112 0.04909,0.0165 0.0069,8e-4 0.01394,0.001 0.02066,0.003 0.0096,0.002 0.01839,0.007 0.0279,0.009 -0.0078,-0.0162 -0.0067,-0.0276 -0.0078,-0.0403 -0.0543,-0.0485 -0.06432,-0.0881 0.06253,-0.0997 0.06217,-0.006 0.07999,-0.0103 0.09147,-0.0114 0.0087,-7.9e-4 0.02228,0.004 0.03979,0.008 0.0019,2.6e-4 0.0038,5.3e-4 0.0057,0.001 0.0016,5.2e-4 0.0013,4e-5 0.0031,5.2e-4 7.94e-4,1.6e-4 0.0013,2.6e-4 0.0021,5.3e-4 0.0019,1.5e-4 0.0034,8e-4 0.0052,0.001 0.0042,5.3e-4 0.0083,0.002 0.01241,0.002 0.0019,2.6e-4 0.0035,5.3e-4 0.0052,5.3e-4 0.0064,7.9e-4 0.01278,0.002 0.01913,0.003 -0.0046,-0.001 -0.0089,-0.002 -0.01344,-0.003 0.0024,5.3e-4 0.0028,-3e-5 0.0057,5.3e-4 0.0034,5.3e-4 0.0071,0.002 0.0098,0.003 0.01016,-0.001 0.02032,-0.002 0.03049,-0.004 0.01061,0.002 0.02148,0.003 0.03204,0.005 0.0054,0.001 0.0113,0.001 0.01603,0.004 2.65e-4,1.8e-4 7.94e-4,2.4e-4 0.0011,5.3e-4 -0.0127,-2.7e-4 -0.03881,-10e-4 0.02479,0.003 7.94e-4,1.4e-4 0.0013,2.4e-4 0.0026,5.3e-4 0.0035,2.3e-4 0.0045,-2.6e-4 0.0067,0 0.0038,5.3e-4 0.0044,0.002 0.0078,0.002 5.29e-4,6e-5 5.29e-4,5.3e-4 0.0011,5.3e-4 0.01294,0.002 0.02164,0.007 0.03049,0.009 0.0077,0.001 0.01566,5.3e-4 0.02326,0.002 0.01352,0.002 0.02572,0.009 0.03876,0.0129 0.0074,0.003 0.03109,0.0134 0.03566,0.0171 0.0049,0.004 -0.01132,-0.005 -0.01704,-0.008 0.0057,0.003 0.01132,0.007 0.01704,0.0103 0.0024,0.001 0.0045,0.002 0.0052,0.002 0.0028,7.9e-4 0.0055,0.002 0.0083,0.003 0.0024,8e-4 0.0031,0.001 0.0067,0.003 0.0013,1e-4 0.0024,5.3e-4 0.0036,5.3e-4 0.0011,2.6e-4 0.0021,2.1e-4 0.0031,5.3e-4 0.0011,-4e-5 0.0021,0 0.0031,0 0.0031,1.5e-4 0.004,7.9e-4 0.0057,0.001 0.05817,-0.0214 0.109511,-0.0258 0.150894,-0.008 0.07569,0.033 0.48382,0.14837 0.906921,0.25632 1.263909,0.32248 2.808089,1.0552 3.806486,1.80661 0.595008,0.4478 1.723903,1.56755 2.116151,2.09909 0.180401,0.24448 0.355322,0.44442 0.389122,0.44442 0.103728,0 0.369327,-0.43047 0.743625,-1.20664 0.513038,-1.06391 0.842518,-2.46085 0.903819,-3.83078 0.170191,-3.80091 -1.589394,-7.23427 -4.784203,-9.33483 -1.722366,-1.13244 -3.710319,-1.70165 -5.698361,-1.71617 z m -2.239656,11.59567 c -0.0039,10e-4 -0.008,0.002 -0.01188,0.004 -0.0084,0.003 -0.01635,0.008 -0.02429,0.0124 -2.65e-4,2.6e-4 0.0031,-10e-4 0.0026,-5.3e-4 -0.004,0.002 -0.0083,0.004 -0.01241,0.007 0.01619,-0.008 0.03261,-0.0163 0.04961,-0.0222 -0.0013,1.9e-4 -0.0024,3e-5 -0.0036,0 z m -0.03617,0.016 c 5.29e-4,-5.3e-4 -0.0034,0.001 -0.0036,0.001 -2.65e-4,1.8e-4 -7.94e-4,2.1e-4 -0.0011,5.3e-4 -0.0034,-5.3e-4 -0.02212,0.005 -0.03256,0.009 -0.0054,0.002 -0.01042,0.005 -0.0155,0.008 0.01236,-0.005 0.0213,-0.006 0.03514,-0.0108 -0.004,0.002 -0.0079,0.005 -0.01188,0.007 0.0019,-10e-4 0.0038,-0.002 0.0057,-0.003 0.0011,-7.9e-4 0.0021,-7.9e-4 0.0031,-0.002 0.0016,-0.001 0.0035,-0.002 0.0052,-0.003 7.94e-4,-2.6e-4 0.0013,-2.2e-4 0.0021,-5.3e-4 -0.0024,10e-4 -0.0049,0.002 -0.0072,0.004 0.0024,-0.001 0.0049,-0.002 0.0072,-0.003 7.93e-4,-5.3e-4 0.0016,-10e-4 0.0026,-0.002 0.0036,-0.002 0.0072,-0.004 0.01085,-0.006 z m 0.572058,-0.16588 c -0.0073,0.001 -0.01442,0.003 -0.0217,0.004 0.0038,-2.7e-4 0.0076,-5.3e-4 0.01138,-0.001 0.0024,-2.3e-4 -0.0068,0.001 -0.01704,0.003 -0.0021,0.003 -0.0061,0.004 -0.0041,0.01 0.01418,-0.007 0.02702,-0.0104 0.04031,-0.015 -0.0021,-2.6e-4 -0.0039,-1.3e-4 -0.0062,-5.3e-4 -0.0011,-1.4e-4 -0.0016,1.3e-4 -0.0026,0 z m -0.0217,0.004 c -0.0019,1.4e-4 -0.0034,2.1e-4 -0.0052,5.2e-4 l -5.29e-4,5.3e-4 c 0.0019,-2.6e-4 0.0038,-7.9e-4 0.0057,-0.001 z m 3.08405,0.001 c 0.0031,0.002 0.0054,0.004 0.0088,0.006 0.005,0.002 0.0098,0.002 0.01603,0.005 0.0081,0.004 -0.01656,-0.007 -0.02479,-0.0104 z m 0.05684,0.0259 c 0.0026,0.002 0.0056,0.003 0.0083,0.004 0.0013,2.7e-4 0.0028,8e-4 0.0041,0.001 -7.94e-4,-2.6e-4 -0.0027,-0.002 -0.0031,-0.002 -0.0024,-7.9e-4 -0.01045,-0.004 -0.0093,-0.004 z m 0.02066,0.008 c 7.93e-4,5.3e-4 0.0016,0.001 0.0026,0.002 7.94e-4,1.2e-4 0.0019,-1.5e-4 0.0026,0 -0.0024,-0.001 -0.0028,-5.3e-4 -0.0052,-0.002 z m -0.885733,0.004 c 0.02016,0.005 0.0402,0.01 0.06563,0.0139 0.0067,0.001 -0.01302,-0.005 -0.01963,-0.006 -0.02387,-0.006 -0.03134,-0.006 -0.04599,-0.008 z m -0.786,0.006 c 0.005,0.001 0.01,0.002 0.01498,0.003 0.0011,-2e-4 0.0011,-1.5e-4 0.0021,-5.3e-4 -0.0056,-7.9e-4 -0.0114,-0.002 -0.01707,-0.003 z m 0.03101,0.005 c -0.0016,1.9e-4 -0.0031,1.7e-4 -0.0047,5.3e-4 0.01156,0.003 0.02299,0.005 0.03462,0.007 0.01019,0.001 -0.01807,-0.005 -0.02997,-0.007 z m -1.690851,0.009 c -0.0057,0.002 -0.01103,0.004 -0.01654,0.006 0.01135,-0.006 -0.0122,0.0101 -0.0155,0.0124 0.0026,3e-5 0.0051,-10e-5 0.0078,0 0.0081,-0.006 0.01622,-0.012 0.02429,-0.0181 z m -0.02429,0.0181 c -7.94e-4,5.3e-4 -0.0013,0.001 -0.0021,0.002 0.0058,-7.9e-4 0.0085,-10e-4 0.01241,-0.002 0.0011,-2.3e-4 0.0011,-2.1e-4 0.0021,-5.3e-4 -0.0041,2.4e-4 -0.0082,8e-4 -0.01241,5.3e-4 z m -0.0021,0.002 c -0.0039,5.3e-4 -0.0051,7.9e-4 -0.0083,0.001 -0.0021,0.002 -0.0055,0.005 -0.0062,0.005 0.0033,-10e-4 0.0078,-0.002 0.01035,-0.003 0.0013,-0.001 0.0028,-0.002 0.0041,-0.003 z m -0.0083,0.001 c 0.0011,-7.9e-4 0.0019,-0.002 0.0026,-0.003 -0.0059,-6e-5 -0.01188,-7.9e-4 -0.01757,5.3e-4 -0.0076,0.002 -0.005,0.003 -0.01085,0.005 0.0058,-2.7e-4 0.01561,-0.002 0.02585,-0.003 z m -0.0279,-0.003 c 0.0054,-0.003 -0.01003,0.004 -0.01757,0.007 5.3e-4,-3e-5 0.0035,4e-5 0.0041,0 0.0044,-0.002 0.0091,-0.004 0.01344,-0.007 z m 0.02479,0.01 c 0.0035,-5.3e-4 -0.01151,0.002 -0.0083,0.002 l -5.29e-4,5.3e-4 c 0.0027,-5.3e-4 0.0045,-0.001 0.0088,-0.002 z m -0.131257,0.0269 c -0.004,7.9e-4 -0.0079,0.001 -0.01188,0.002 -0.0016,7.9e-4 -0.0031,0.001 -0.0047,0.002 0.0013,-2.5e-4 0.0024,-7.9e-4 0.0036,-0.001 h 5.3e-4 c 0.0037,-0.001 0.0076,-0.002 0.01138,-0.003 2.64e-4,-1.3e-4 7.93e-4,-2.1e-4 0.0011,-5.3e-4 z m 0.906404,5.3e-4 c -0.0039,2.6e-4 -0.01579,0.002 -0.01188,0.002 0.0049,-8e-4 0.01003,-10e-4 0.01497,-0.002 -0.0011,8e-5 -0.0021,-5.3e-4 -0.0031,-5.3e-4 z m 0.610815,0.005 c -0.0038,0.001 -0.0024,-7e-5 -0.0062,0.002 -0.007,0.002 -0.01204,0.008 -0.0181,0.0124 0.0113,-0.007 0.01498,-0.008 0.02429,-0.0139 z m -0.579811,0.0584 c -0.0019,0.006 -2.17e-4,0.0102 -0.0036,0.0171 0.0089,-0.001 0.01765,-0.002 0.02791,-0.004 -0.0072,-0.006 -0.01638,-0.008 -0.02429,-0.0134 z m -1.385961,0.0662 c 0.0029,-10e-4 -0.0078,0.003 -0.0098,0.004 0.0013,-1.6e-4 0.0024,-2.2e-4 0.0036,-5.3e-4 2.65e-4,-1.9e-4 7.94e-4,-5.3e-4 0.0011,-5.3e-4 h 5.29e-4 c 7.94e-4,-2.6e-4 0.0041,-0.002 0.0047,-0.003 z m 1.34979,0.45268 c 0.0016,0.0179 0.0011,0.0195 0.0021,0.031 -2.46e-4,-0.005 0.0016,-0.008 0.0011,-0.0129 -7.94e-4,-0.006 -0.0021,-0.012 -0.0031,-0.0181 z m -0.179835,0.23462 c 0.0011,7.9e-4 0.0019,0.002 0.0031,0.003 0.02469,0.0164 0.02761,0.0169 0.04134,0.0259 0.0075,-0.003 0.01519,-0.005 0.02273,-0.008 -0.0081,-0.007 -0.01585,-0.0124 -0.02376,-0.0186 -0.0079,1.5e-4 -0.01588,2.5e-4 -0.02376,0 -0.0109,-2.7e-4 -0.01196,-0.002 -0.01963,-0.003 z m -0.122473,0.0718 c -0.0056,-0.002 0.0109,0.003 0.01654,0.005 0.0021,2.3e-4 0.0027,1.4e-4 0.0047,5.3e-4 -0.007,-0.002 -0.01413,-0.004 -0.02119,-0.006 z m 0.363803,0.0527 c -0.0016,1.3e-4 -0.0031,1.6e-4 -0.0047,5.2e-4 v 0.001 c -0.004,0.002 -0.0084,0.003 -0.01241,0.006 -0.0053,0.003 0.0092,-0.003 0.01707,-0.007 z m -0.325562,0.27802 c -0.0011,7.9e-4 -0.0035,0.003 -0.0047,0.004 -0.0024,0.003 -0.0026,0.003 -0.0062,0.008 -0.0011,0.002 -0.0021,0.003 -0.0031,0.005 0.0045,-0.005 0.0063,-0.008 0.01394,-0.017 z"
       inkscape:connector-curvature="0" />
    <path
       id="path3802"
       style="fill:#8fa63f;fill-opacity:1;stroke-width:0.08466667"
       d="m 58.498109,153.70068 c -0.01664,0.003 -0.0334,0.005 -0.05013,0.007 0.0019,0.002 0.0037,0.004 0.0057,0.006 0.01453,-0.004 0.02871,-0.006 0.04341,-0.0109 5.3e-4,-5.3e-4 5.3e-4,-10e-4 0.0011,-0.002 z m 4.037478,0.1881 c -0.323472,-0.0111 -0.644512,0.0346 -0.848527,0.14107 -0.887709,0.46333 -1.211866,1.53377 -0.759126,2.50631 0.343291,0.73745 0.84229,1.24885 1.339971,1.37304 0.447707,0.11172 0.75337,0.0199 1.049031,-0.3147 0.40087,-0.45361 0.633463,-1.13224 0.680061,-1.98696 0.04927,-0.90278 -0.07831,-1.22723 -0.596863,-1.51877 -0.21495,-0.12087 -0.541073,-0.18889 -0.864547,-0.19999 z m 2.366782,1.72754 c -0.0092,0 -0.03431,0.30367 -0.05581,0.6749 -0.0331,0.57183 -0.08031,0.74094 -0.307475,1.10639 -0.391109,0.62915 -0.444357,0.57152 0.705385,0.76223 0.617998,0.1025 1.749192,0.36495 2.222603,0.51521 0.151349,0.0481 0.275434,0.14154 0.275434,0.20774 0,0.0662 -0.01315,0.1204 -0.02894,0.1204 -0.333891,0 -2.917084,0.29036 -3.442684,0.38706 -0.826442,0.15205 -2.285648,0.6143 -2.285648,0.72399 0,0.0407 1.152443,0.0782 2.561082,0.0832 1.40865,0.005 2.904212,0.0384 3.323312,0.0749 l -5.29e-4,5.3e-4 c 0.4191,0.0365 1.219385,0.0602 1.778185,0.0543 0.930799,-0.0108 1.056828,-0.0319 1.503267,-0.25115 0.546301,-0.26827 0.709605,-0.47549 0.574125,-0.72864 -0.09966,-0.18622 -0.664157,-0.65415 -1.103807,-0.91519 -0.879991,-0.52249 -5.537354,-2.81585 -5.718514,-2.81585 z m -5.167127,0.0848 c -0.232169,0 -2.02362,0.81276 -3.053561,1.38545 -2.338129,1.3001 -3.48501,2.17053 -3.499012,2.65565 -0.0056,0.19298 0.704641,0.46711 1.602486,0.61857 0.537141,0.0906 1.370685,0.15313 2.094963,0.15813 1.110972,0.007 1.289042,-0.0142 2.328542,-0.28371 0.618988,-0.16048 1.487218,-0.41158 1.929596,-0.55811 0.910741,-0.30162 2.146559,-0.63031 2.702679,-0.71881 0.32535,-0.0518 0.352605,-0.072 0.211357,-0.15245 -0.275362,-0.15696 -2.738794,-0.16969 -4.410585,-0.0227 -1.799699,0.1581 -2.451428,0.16973 -2.528528,0.045 -0.0307,-0.0496 -0.03902,-0.10724 -0.0186,-0.12764 0.02043,-0.0204 0.716319,-0.22914 1.546159,-0.46405 0.829831,-0.23491 1.579014,-0.46457 1.665015,-0.51057 0.172349,-0.0922 0.181353,-0.0665 -0.313677,-0.8816 -0.14046,-0.23123 -0.205756,-0.46645 -0.206706,-0.74104 -7.94e-4,-0.22119 -0.02334,-0.40204 -0.05013,-0.40204 z"
       inkscape:connector-curvature="0" />
    <path
       id="path3798"
       style="fill:#3b2009;fill-opacity:1;stroke-width:0.08466667"
       d="m 62.214676,140.97535 c -0.515503,0.0192 -1.027697,0.34111 -1.35392,0.95912 -0.254722,0.48212 -0.255474,1.39516 -0.0026,1.87069 0.209939,0.3945 0.571995,0.7594 0.872815,0.87901 h 5.3e-4 c 0.460351,0.18302 1.15416,0.0443 1.553911,-0.31057 0.31668,-0.28113 0.561165,-0.95261 0.561205,-1.54203 2.1e-5,-0.45804 -0.04352,-0.62552 -0.257347,-0.99839 -0.340225,-0.59327 -0.859089,-0.87697 -1.374595,-0.85783 z m 3.4339,3.46491 c -0.54307,0 -0.812464,0.40461 -0.952912,1.4304 -0.129551,0.94617 -0.365705,1.68181 -0.829924,2.58434 -0.367972,0.71541 -1.083181,1.71095 -1.327052,1.84743 -0.238811,0.13365 -1.255181,-1.2639 -1.725991,-2.37298 -0.324731,-0.76494 -0.424553,-1.12889 -0.566891,-2.07429 -0.176702,-1.17354 -0.498711,-1.54109 -1.197861,-1.36684 -0.218009,0.0543 -0.379728,0.17139 -0.517798,0.37517 -0.17676,0.26087 -0.19381,0.3574 -0.145211,0.8046 0.11312,1.04092 0.96167,3.12556 1.68362,4.13618 0.204521,0.28631 0.605044,0.73604 0.890384,0.99942 0.3029,0.27962 0.500391,0.52633 0.47439,0.59273 -0.06885,0.17587 -1.164614,0.96099 -1.957504,1.4025 -1.063019,0.59192 -1.232712,0.7888 -0.835091,0.96997 0.447961,0.2041 1.88246,-0.32381 3.12384,-1.1498 l 0.719852,-0.47904 0.568957,0.38964 c 0.78264,0.53582 1.538335,0.90332 2.487705,1.20923 0.442381,0.14253 0.880483,0.27602 0.973585,0.29662 0.09314,0.0205 0.195691,0.042 0.227891,0.047 0.03218,0.005 0.08414,-0.0313 0.115239,-0.0816 0.09666,-0.1564 -0.390686,-0.57674 -1.316715,-1.13585 -1.108429,-0.66924 -2.031918,-1.36346 -2.031918,-1.52756 0,-0.0686 0.104514,-0.21024 0.232545,-0.31471 0.733899,-0.59882 1.388698,-1.48295 1.889808,-2.55229 1.214329,-2.5913 1.220232,-4.03025 0.01704,-4.03025 z"
       inkscape:connector-curvature="0" />
  </g>
</svg>
